<svg xmlns="http://www.w3.org/2000/svg" width="316.234" height="316.234" viewBox="0 0 316.234 316.234"><g id="Сгруппировать_26" data-name="Сгруппировать 26" transform="translate(-2699.883 -2707.883)"><path id="Контур_25" data-name="Контур 25" d="M2704.342,2755.723l57.572-45.408a12.47,12.47,0,0,1,7.7-2.432h234.338a11.945,11.945,0,0,1,12.163,12.163v291.908a11.946,11.946,0,0,1-12.163,12.163H2712.046a11.946,11.946,0,0,1-12.163-12.163v-246.5a12.955,12.955,0,0,1,4.459-9.731Zm90.817-33.27h125.683v72.693H2795.159v-72.693ZM2858,2918.706A52.706,52.706,0,1,0,2805.294,2866,52.6,52.6,0,0,0,2858,2918.706ZM2739.612,2973.5v-6.754h-24.928v6.754h7.687v32.013h9.5V2973.5Zm28.719,32.013v-38.767h-9.389V2982.4h-6.535v-15.649h-9.335v38.767h9.335v-16.254h6.535v16.254Zm26.8,0v-6.864h-10.653v-9.335h10.049V2982.5h-10.049v-8.951h10.653v-6.808h-20.042v38.767Zm45.741,0-8.841-20.427,7.853-18.34h-9.555l-7.138,17.571v-17.571h-9.281v38.767h9.281v-18.944l7.852,18.944Zm22.9,0v-6.864h-10.652v-9.335h10.049V2982.5h-10.049v-8.951h10.652v-6.808h-20.042v38.767Zm25.149,0v-6.864h-10.652v-9.335h10.049V2982.5h-10.049v-8.951h10.652v-6.808h-20.042v38.767Zm5.052-38.767v38.767h9.335v-14.167h7.413c4.5,0,7.962-1.592,7.962-7.578v-9.225c0-4.173-1.263-7.8-8.017-7.8Zm9.335,6.589h3.459c1.923,0,3.13.384,3.13,2.581v4.941c0,2.088-.055,3.68-3.074,3.68H2903.3v-11.2Zm40.523,32.178v-6.864h-10.652v-9.335h10.049V2982.5h-10.049v-8.951h10.652v-6.808h-20.042v38.767Zm29.707,0c-.878-.989-1.318-1.757-1.318-4.228v-8.237c0-3.02-.109-4.5-1.1-5.766a6.944,6.944,0,0,0-3.843-2.031c3.4-1.867,4.887-3.185,4.887-8.566,0-2.856-.166-6.095-2.636-8.127-2.142-1.757-4.833-1.812-7.413-1.812h-13.233v38.767h8.785v-16.528h1.7c4.064,0,4.393.713,4.393,4.5v6.26c0,2.306.055,4.064,1.154,5.766Zm-15.869-32.069h2.856c2.526,0,3.239.385,3.239,4.01s-.164,4.886-3.185,4.886h-2.91v-8.9Zm42.721,5.218v-2.033c0-6.15-.6-10.6-10.928-10.6-9.225,0-12.08,3.02-12.08,11.2,0,6.424,2.471,7.358,5.436,9.5l5.6,4.064c3.35,2.416,3.514,2.636,3.514,5.765,0,1.208-.329,2.691-2.965,2.691-2.746,0-2.746-2.2-2.746-3.076V2993.1h-9.279v2.306c0,1.648.055,4.448,1.043,6.314,1.537,2.746,5.271,4.339,11.092,4.339,11.476,0,12.245-5.985,12.245-10.872,0-5.492-1.1-6.864-5-9.554l-7.962-5.547a3.436,3.436,0,0,1-1.757-3.13v-1.428c0-1.592.439-2.854,2.306-2.854,2.416,0,2.636,1.262,2.636,3.239v2.746Z" fill-rule="evenodd"/></g></svg>