<svg xmlns="http://www.w3.org/2000/svg" width="378.662" height="447.298" viewBox="0 0 378.662 447.298"><g id="Сгруппировать_53" data-name="Сгруппировать 53" transform="translate(-2668.669 -346.351)"><g id="Сгруппировать_52" data-name="Сгруппировать 52"><path id="Контур_49" data-name="Контур 49" d="M2933.717,704.586c-8.768-3.41-17.336-6.611-25.8-10.062-18.147-7.4-36.114-15.2-53.578-24.129-7.1-3.629-13.16-8.621-19.111-13.8-2.951-2.569-5.871-5.175-8.876-7.679-6.719-5.6-14.864-7.918-23.165-9.722a141.363,141.363,0,0,0-28.478-3.363c-13.477-.145-26.57-2.5-39.6-5.588-16.956-4.021-33.151-10.349-49.511-16.182-2.574-.917-5.131-1.881-7.849-2.88,1.092-4.349,1.178-8.807,3.259-12.864,3.325-6.483,6.4-13.092,9.683-19.6.939-1.861,2.222-3.549,3.451-5.479l1.738.952c11.044,6.063,21.961,12.374,33.166,18.125,13.492,6.924,28.007,10.445,43.094,11.853a264.507,264.507,0,0,1,37.5,5.8c13.726,3.307,24.618,10.594,32.439,22.428,4.311,6.523,8.6,13.074,13.186,19.4a87.889,87.889,0,0,0,15.646,15.992,11.155,11.155,0,0,0,1.709.971l.532-.495c-1.949-2.9-3.846-5.838-5.861-8.692a30.053,30.053,0,0,1-4.878-9.534c1.711.947,2.681-.081,3.7-1.023a67.292,67.292,0,0,0,18.825-30.442q8.574-28.286,17.55-56.447c2.525-7.938,5.086-15.913,9.532-23.064,6.633-10.672,16.284-16.437,28.81-17.33,4.773-.34,9.556-.533,14.334-.806a5.129,5.129,0,0,0,.917-.22l.078-.475a35.978,35.978,0,0,0-5.911-1.565c-4.165-.4-6.536-2.6-8.161-6.347-3.979-9.163-10.159-16.43-19.16-21.094-1.4-.724-2.733-1.567-4.077-2.388-11.052-6.758-22.163-13.421-33.111-20.343-3.676-2.324-6.944-5.3-10.376-8-1.065-.84-2.055-1.775-3.08-2.667l-.356.284.821,2.4c-1.394.254-2.722.557-4.066.733-15.394,2.011-29.759,7.209-43.575,14.086-8.058,4.011-16.274,7.6-25.057,9.726a4.312,4.312,0,0,1-2.531-.131,6.527,6.527,0,0,1,.74-.619c10.132-6.248,20.209-12.589,30.421-18.7,11.416-6.836,23.983-10.813,36.734-14.271.5-.136,1-.29,1.669-.486l-4.294-9.321.631-.537c.405.619.788,1.254,1.217,1.855,8.27,11.587,19.481,19.553,32.129,25.575,10.79,5.137,21.772,9.872,32.67,14.782,5.764,2.6,11.332,5.518,16.161,9.68a39.713,39.713,0,0,1,8.342,10.3c3.079,5.3,6.169,10.586,9.192,15.914a4.284,4.284,0,0,0,3.849,2.435,76.706,76.706,0,0,0,17.551-1.287c-.735-1.375-1.315-2.677-2.082-3.859q-4.818-7.414-9.73-14.767c-8.7-13.057-20.932-21.308-35.55-26.521-14.22-5.071-28.447-10.163-42.429-15.842a74.745,74.745,0,0,1-32.73-25.541c-1.031-1.413-2.194-2.731-3.327-4.067a6.776,6.776,0,0,0-1.027-.825l-.518.408,5.421,10.485c-28.635,9-52.995,23.961-70.913,48.319l.359.588c.667-.4,1.344-.8,2-1.22.729-.472,1.439-.975,2.292-1.555a8.221,8.221,0,0,1,.6,1.063c6.949,18.578,17.107,35.486,27.249,52.4,4.356,7.266,7.751,14.9,9.064,23.334a28.858,28.858,0,0,1,.031,4.392l-.569.1a34.1,34.1,0,0,1-1.643-3.374c-2.154-5.931-5.545-11.141-9.115-16.29-10.541-15.207-20.978-30.486-31.464-45.732-1.218-1.771-2.484-3.508-3.96-5.587l-6.425,13.814-.324-.1c.267-1.131.52-2.265.8-3.391,4.849-19.309,13.722-36.764,24.658-53.247,4.17-6.285,10.041-10.742,16.614-14.2,9.339-4.917,18.8-9.6,28.224-14.358,3.872-1.956,3.927-2.054,1.629-5.779q-4.181-6.781-8.385-13.547c-1.363-2.2-1.852-2.36-4.09-1.273q-17.86,8.676-35.707,17.382a35.534,35.534,0,0,0-15.406,13.6,26.456,26.456,0,0,0-3.94,15.209,115.968,115.968,0,0,1-3.564,36.417c-2.32,8.716-3.542,17.72-5.4,26.566-.908,4.333-2.15,8.6-3.223,12.9-.147.587-.187,1.2-.277,1.8l.4.16a6.269,6.269,0,0,0,.675-1.013q1.668-3.945,3.285-7.913c.833-2.054,1.377-2.345,3.46-1.556a37.37,37.37,0,0,1,14.278,9.28q8.011,8.561,15.434,17.668c8.255,10.14,16.268,20.477,24.4,30.723.436.551.973,1.021,1.464,1.529l.606-.336c-.508-1.428-.919-2.9-1.554-4.27-.515-1.111-.633-2.029.471-2.746,13.261-8.613,23.469-20.638,34.94-31.25,4.842-4.479,9.494-9.168,15.131-12.712a72.152,72.152,0,0,1,21.92-8.966,19.9,19.9,0,0,1,3.178-.163,7.5,7.5,0,0,1-1.011.736c-15.417,5.9-27.248,16.2-36.52,29.662-1.622,2.355-3.442,4.576-5.024,6.957a195.132,195.132,0,0,1-23.251,27.986,13.285,13.285,0,0,1-1.713,1.482c-1.738,1.258-2.026,2.217-1.066,4.18,1.562,3.2,3.2,6.356,4.728,9.566a11.558,11.558,0,0,1,.576,2.381l-.472.213c-.387-.537-.8-1.056-1.156-1.614a78.632,78.632,0,0,0-21.792-22.507c-8.433-5.876-15.785-12.948-22.87-20.341-2.662-2.778-5.419-5.487-8.33-8-4.377-3.777-9.787-5.052-15.365-5.665-2.427-.266-4.883-.281-7.327-.391a7.5,7.5,0,0,0-6.142,2.782c-2.781,3.071-5.642,6.071-8.531,9.041a6.57,6.57,0,0,1-1.882.946,7.623,7.623,0,0,1,1.038-1.928,46.214,46.214,0,0,0,8.695-11.788,52.759,52.759,0,0,0,5.139-19.328c1.386-14.879,2.694-29.767,4.157-44.639.712-7.231-1.075-13.986-3.2-20.765a160.083,160.083,0,0,1-4.889-17.671c-1.986-10.433.976-19.488,8.866-26.823,7.012-6.517,15.227-11.142,23.707-15.382q12.519-6.26,25.009-12.579c3.125-1.587,3.139-1.973.7-4.4-4.353-4.321-8.715-8.632-13.026-12.995a25.368,25.368,0,0,1-2.13-2.834l.353-.409c.6.282,1.2.552,1.8.847,13.364,6.651,26.612,13.578,40.7,18.629,10.424,3.739,20.991,7.08,31.436,10.763a78.982,78.982,0,0,1,21.5,11.193c12.073,9.106,25.922,14.425,40.043,19.224,17.285,5.876,35.074,8.426,53.3,8.842,13.685.312,26.914,3.474,39.922,8.484a56.206,56.206,0,0,0-11.308,41.866c-.713-.409-1.217-.674-1.7-.977-7.261-4.569-14.668-8.924-21.744-13.763-12.2-8.346-25.659-13.814-39.767-17.739-13.871-3.86-27.836-7.392-41.8-10.9-12.015-3.015-23.685-6.825-33.836-14.169-5.1-3.691-9.772-7.985-14.907-11.626-9.8-6.952-19.79-13.652-29.729-20.414-3.039-2.068-6.164-4.011-9.269-5.981a17.817,17.817,0,0,0-1.958-.939l-.479.431a31.652,31.652,0,0,0,2.827,4.606c3.254,3.746,6.641,7.379,10.058,10.978,9.17,9.657,18.421,19.238,27.569,28.915,9.665,10.224,21.378,17.014,34.75,21.125,15.156,4.659,30.318,9.3,45.441,14.064,9.678,3.048,19.217,6.709,26.8,13.626,8.139,7.429,15.662,15.534,23.426,23.371,1.231,1.242,2.289,2.654,3.482,3.936,1.782,1.915,2.791,1.831,4.253-.377q7.158-10.8,14.282-21.625a17.857,17.857,0,0,1,1.249-1.511l.5.249c-.37,1.18-.683,2.381-1.118,3.536q-8.979,23.9-18,47.779a4.4,4.4,0,0,1-1,1.6,122.429,122.429,0,0,0-32.814,53.583c-4.824,15.614-11.518,30.534-17.7,45.644a330.189,330.189,0,0,0-18.951,66.315C2934.137,702.63,2933.957,703.42,2933.717,704.586Zm67.241-190.554-.186-.443a9.585,9.585,0,0,0-2.334.462c-5,2.376-9.947,4.868-14.955,7.229-3.526,1.662-7,3.6-10.713,4.661-6.037,1.73-12.228,2.952-18.394,4.192-5.567,1.119-11.112,2.17-15.887,5.534-6.711,4.727-10.64,11.378-12.888,19.059-2.6,8.894-5.03,17.841-7.367,26.809-3.7,14.213-7.108,28.507-10.94,42.685-4.83,17.872-12.973,33.964-26.47,47a12.116,12.116,0,0,0-1.02,1.2,1.915,1.915,0,0,0,.263,2.929c.521.467,1.066.91,1.626,1.33q9.249,6.931,18.509,13.85c2.166,1.617,2.955,1.524,4.335-.751,3.146-5.187,6.111-10.485,9.339-15.619a170.194,170.194,0,0,0,20.082-47.321q6.2-23.319,12.263-46.676a57.878,57.878,0,0,1,18.464-30.171c11.735-10.225,22.4-21.682,33.495-32.633C2999.2,516.346,3000.037,515.144,3000.958,514.032Z"/><path id="Контур_50" data-name="Контур 50" d="M2696.533,570.878a25.5,25.5,0,0,1,10.609-8.886c4.7-2.193,9.269-4.7,14.058-6.678,10.559-4.356,15.789-12.285,16.91-23.463,1.053-10.5.765-20.992.452-31.5-.219-7.354-.4-14.717-.294-22.072a137.793,137.793,0,0,0-4.209-36.931,74.132,74.132,0,0,1-2.465-22.027,61.217,61.217,0,0,1,11.665-33.42c7.993-11.139,16.659-21.795,25.052-32.646,1.536-1.985,3.254-3.835,4.716-5.871.877-1.221,1.666-1.246,2.906-.654,7.421,3.54,14.872,7.017,22.309,10.522,1.53.721,3.07,1.426,4.562,2.22,1.8.959,1.9,1.943.251,3.119-2.566,1.829-5.235,3.512-7.819,5.316-9.043,6.315-18.174,12.51-27.058,19.041a65.282,65.282,0,0,0-13.77,14.139c-7.529,10.245-9.861,21.52-6.385,33.8,2.144,7.57,4.561,15.063,6.95,22.561a61.1,61.1,0,0,1,2.957,18.6c.005,15.416-.061,30.834-.293,46.248a57.381,57.381,0,0,1-2.992,16.832c-3.32,10.24-10.18,16.93-20.247,20.471-1.265.445-2.547.845-3.79,1.342a4.882,4.882,0,0,0-1.093.864l.312.626c3.676-.992,7.446-1.73,11-3.043a20.751,20.751,0,0,1,11.476-.9,103.887,103.887,0,0,0,12.507,1.341,46.263,46.263,0,0,1,18.66,4.9c12.756,6.691,25.486,13.446,38.016,20.547,5.408,3.065,10.375,6.942,15.394,10.65,5.7,4.208,9.74,9.842,13.006,16.065.785,1.5,1.605,2.977,2.445,4.444a8.165,8.165,0,0,0,.89,1.088l.463-.237a14.85,14.85,0,0,0-.43-1.516c-1.137-2.873-2.243-5.76-3.466-8.6a4.929,4.929,0,0,1,.3-5.148c10.522-14.8,18.439-31.087,27.071-46.974a154.893,154.893,0,0,1,9.884-15.684c7.5-10.546,17.185-18.359,29.617-22.485.978-.325,1.925-.741,2.953-1.14-.167-.159-.248-.29-.3-.279-3,.625-4.434-.778-5.7-3.471-2.813-5.986-7.322-10.778-11.954-15.43-6.178-6.2-12.541-12.247-18.363-18.771-3.186-3.569-5.446-7.97-8.062-12.035a13.33,13.33,0,0,1-.984-2.518l.495-.337a6.441,6.441,0,0,0,.535.892,113.715,113.715,0,0,0,21.817,19.632c5.728,4.032,11.386,8.163,17.094,12.225a40.507,40.507,0,0,1,13.122,15.683c1.218,2.525,2.871,3.845,5.775,3.969a68.233,68.233,0,0,1,7.837,1.2l-.035.581c-.649.037-1.3.126-1.948.105-16.066-.516-28.426,6.446-38.169,18.8-6.226,7.893-10.217,16.906-13.778,26.217q-8.557,22.377-17.637,44.553a75.674,75.674,0,0,1-11.265,19.086,4.745,4.745,0,0,0-.627,4.486c1.4,5.479,2.757,10.97,4.124,16.457a1.855,1.855,0,0,1-.136,1.394c-.84-1.372-1.795-2.688-2.5-4.126-2.824-5.761-5.689-11.505-8.32-17.354-6.374-14.169-17.153-23.757-30.969-30.3-10.4-4.928-21.416-7.954-32.571-10.472-18.472-4.169-36.37-10.165-54.124-16.638a36.23,36.23,0,0,1-6.338-3.325,15.3,15.3,0,0,0-12.364-1.99c-5.759,1.452-11.358,3.1-16.257,6.6A3.975,3.975,0,0,1,2696.533,570.878Z"/><path id="Контур_51" data-name="Контур 51" d="M2734.882,756.043c2.783,0,5.287-.064,7.781.065.4.021.971.85,1.1,1.393,1.863,7.584,3.662,15.183,5.483,22.777.1.441.256.87.532,1.795,1.317-5,2.51-9.523,3.7-14.047.935-3.55,1.907-7.091,2.775-10.658a1.5,1.5,0,0,1,1.8-1.356c1.919.077,3.844.022,5.913.022,2.254,8.587,4.493,17.116,6.732,25.644h.346q1.378-5.76,2.756-11.519c1.015-4.252,2.075-8.493,3.011-12.762a1.461,1.461,0,0,1,1.759-1.38c2.312.061,4.627.019,7.161.019-1.423,4.962-2.769,9.648-4.109,14.336-2.019,7.059-4.059,14.112-6.025,21.186-.316,1.138-.749,1.649-2,1.543-2.014-.171-4.556.539-5.916-.447-1.283-.93-1.358-3.559-1.914-5.456-1.771-6.034-3.519-12.074-5.4-18.541-.3.819-.48,1.246-.609,1.689-2.076,7.1-4.179,14.2-6.183,21.322a1.613,1.613,0,0,1-1.928,1.428c-1.979-.078-3.963-.022-6.167-.022Z"/><path id="Контур_52" data-name="Контур 52" d="M2809.354,769.44v23.514h-7.418V756.06c2.977,0,5.989-.051,8.994.063.382.015.855.838,1.077,1.373,2.964,7.164,5.89,14.344,8.831,21.518.239.582.521,1.145.977,2.141.439-.922.745-1.5.99-2.092,2.943-7.173,5.91-14.336,8.782-21.538a2.044,2.044,0,0,1,2.318-1.517c2.559.087,5.124.026,7.83.026v36.918H2834.3V769.7l-.459-.127c-.258.584-.534,1.161-.772,1.753-2.67,6.654-5.369,13.3-7.968,19.979a2.129,2.129,0,0,1-2.369,1.686c-3.471-.088-3.474-.018-4.772-3.274q-3.756-9.423-7.514-18.843c-.213-.532-.468-1.046-.7-1.568Z"/><path id="Контур_53" data-name="Контур 53" d="M2668.669,792.965V756.054c2.1,0,4.181-.076,6.244.058.471.031.984.729,1.326,1.224q7.061,10.223,14.078,20.476a3.343,3.343,0,0,0,1.342,1.229v-1.85c0-5.72.031-11.44-.027-17.16a2.261,2.261,0,0,1,1.338-2.346c2.1-1.106,4.14-2.343,6.386-3.631V793.06c-2.055,0-4.133.074-6.2-.056-.474-.03-1-.691-1.34-1.177q-7.044-10.13-14.038-20.291c-.354-.512-.732-1.006-1.4-1.924v23.353Z"/><path id="Контур_54" data-name="Контур 54" d="M3007.521,779.3l7.5,13.768c-2.846,0-5.4.056-7.944-.052-.456-.019-1.035-.632-1.3-1.113-1.914-3.472-3.8-6.96-5.607-10.489a2.193,2.193,0,0,0-2.417-1.448c-1.269.114-2.557.025-4.025.025v12.944h-7.755v-36.68a1.127,1.127,0,0,1,.419-.174c5.427.027,10.87-.183,16.278.159a11.744,11.744,0,0,1,9.732,17.553C3011.332,775.8,3009.328,777.3,3007.521,779.3Zm-13.8-5.505c2.7-.142,5.262-.11,7.775-.452,2.653-.362,3.985-2.143,4.1-4.869.121-2.962-1.068-5.079-3.7-5.551a72.292,72.292,0,0,0-8.172-.581Z"/><path id="Контур_55" data-name="Контур 55" d="M2846.374,793.067c1.424-4.118,2.775-8.016,4.118-11.916,2.714-7.875,5.449-15.744,8.109-23.639a1.815,1.815,0,0,1,2.1-1.506c2.448.1,4.9-.028,7.351.075a1.981,1.981,0,0,1,1.493.974q6.156,17.563,12.179,35.173a4.454,4.454,0,0,1,.093.842c-2.5,0-4.945.045-7.383-.046a1.684,1.684,0,0,1-1.122-.989c-.746-2.021-1.415-4.072-2.032-6.137-.269-.9-.634-1.319-1.675-1.3-3.617.074-7.237.054-10.856.011a1.379,1.379,0,0,0-1.6,1.164c-.594,2.07-1.286,4.114-2.024,6.138-.164.451-.668,1.089-1.037,1.1C2851.593,793.114,2849.1,793.067,2846.374,793.067Zm22.5-14.585-4.413-13.519-.52-.008-4.4,13.527Z"/><path id="Контур_56" data-name="Контур 56" d="M2713.952,771.3h15.694c-1.26,2.174-2.338,4.149-3.557,6.034-.225.348-1.017.453-1.551.459-3.492.039-6.986.02-10.6.02v8.78h16.933v6.334h-24.853V756.156h24.766v6.273h-16.835Z"/><path id="Контур_57" data-name="Контур 57" d="M2954.684,792.958V756.143h24.779v6.3h-16.9v8.772h15.777c-1.31,2.261-2.408,4.274-3.651,6.194-.217.336-1.039.383-1.583.388-3.489.032-6.979.016-10.573.016v8.772h16.978v6.375Z"/><path id="Контур_58" data-name="Контур 58" d="M3018.741,785.429l6.854-3.942a5.745,5.745,0,0,0,3.277,4.73,8.92,8.92,0,0,0,6.824.387,7.172,7.172,0,0,0,3.254-2.4c1.236-1.76.454-3.922-1.744-4.872-2.069-.9-4.311-1.386-6.468-2.081a54.366,54.366,0,0,1-6.272-2.116c-7.27-3.369-6.543-12.257-1.9-16.189,5.174-4.382,15.209-4.649,20.406-.312a33.1,33.1,0,0,1,3.449,3.983l-6.749,3.913c-2.49-4.152-5.52-5.4-9.575-3.984a3.841,3.841,0,0,0-2.945,3.321,3.445,3.445,0,0,0,2.479,3.791c2.177.8,4.486,1.24,6.685,1.989a38.14,38.14,0,0,1,6.453,2.58c6.366,3.577,5.917,13.779-.4,17.216a18.284,18.284,0,0,1-11,2.077,28.241,28.241,0,0,1-7.374-1.919A9.325,9.325,0,0,1,3018.741,785.429Z"/><path id="Контур_59" data-name="Контур 59" d="M2904.244,793h-7.772V762.571h-11.265v-6.379h30.2c-1.159,2.024-2.207,3.944-3.367,5.794a1.82,1.82,0,0,1-1.33.5c-2.093.053-4.188.023-6.461.023Z"/><path id="Контур_60" data-name="Контур 60" d="M2930.512,762.49h-11.231v-6.3h30.18c-1.166,2.038-2.214,3.963-3.376,5.815-.2.323-.884.47-1.35.481-2.093.05-4.188.022-6.463.022v30.434h-7.76Z"/></g></g></svg>