<svg xmlns="http://www.w3.org/2000/svg" width="650" height="51.452" viewBox="0 0 650 51.452"><g id="Сгруппировать_13" data-name="Сгруппировать 13" transform="translate(-2533 -3998.274)"><path id="Контур_9" data-name="Контур 9" d="M2752.808,4023.471l16.626-15.479h-9.967l-12.966,12.084h-28.886v-12.084h-6.748v30.915h6.748v-12.084H2746.5l13.1,12.084h9.967l-16.759-15.436Z"/><path id="Контур_10" data-name="Контур 10" d="M2936.048,4038.906v-6.747h-41.367a8.314,8.314,0,0,1-3.374-.684,8.877,8.877,0,0,1-4.63-4.63,8.312,8.312,0,0,1-.684-3.374,8.417,8.417,0,0,1,.684-3.4,8.822,8.822,0,0,1,4.63-4.653,8.325,8.325,0,0,1,3.374-.683h41.367v-6.748h-41.367a15.007,15.007,0,0,0-6,1.213,15.435,15.435,0,0,0,0,28.489,15.011,15.011,0,0,0,6,1.213Z"/><path id="Контур_11" data-name="Контур 11" d="M2993.777,4022.457l-31.268-13.407v29.856h6.527v-19.934l24.741,10.584,24.741-10.584v19.934h6.527V4009.05l-31.268,13.407Z"/><path id="Контур_12" data-name="Контур 12" d="M3100.509,4011.652a12.989,12.989,0,0,0-3.947-2.668,11.652,11.652,0,0,0-4.807-.993h-31.974a11.651,11.651,0,0,0-4.807.993,12.983,12.983,0,0,0-3.947,2.668,12.278,12.278,0,0,0-3.638,8.776v6.086a11.914,11.914,0,0,0,.97,4.836,12.575,12.575,0,0,0,6.615,6.615,12.124,12.124,0,0,0,4.807.971h31.974a12.127,12.127,0,0,0,4.807-.971,12.578,12.578,0,0,0,6.615-6.615,12.173,12.173,0,0,0,.97-4.807v-6.115A12.3,12.3,0,0,0,3100.509,4011.652Zm-3.109,14.84a5.586,5.586,0,0,1-.441,2.205,5.765,5.765,0,0,1-3,3.006,5.426,5.426,0,0,1-2.205.441h-31.974a5.442,5.442,0,0,1-2.205-.441,5.668,5.668,0,0,1-3.021-3.006,5.446,5.446,0,0,1-.441-2.205v-6.1a5.442,5.442,0,0,1,.441-2.205,5.717,5.717,0,0,1,1.213-1.793,5.657,5.657,0,0,1,3.991-1.654h31.974a5.409,5.409,0,0,1,2.205.441,5.734,5.734,0,0,1,3,3.006,5.549,5.549,0,0,1,.441,2.205Z"/><path id="Контур_13" data-name="Контур 13" d="M3183,4038.906v-6.747h-41.367a8.312,8.312,0,0,1-3.374-.684,8.877,8.877,0,0,1-4.63-4.63,8.312,8.312,0,0,1-.684-3.374,8.416,8.416,0,0,1,.684-3.4,8.823,8.823,0,0,1,4.63-4.653,8.324,8.324,0,0,1,3.374-.683H3183v-6.748h-41.367a15.009,15.009,0,0,0-6,1.213,15.435,15.435,0,0,0,0,28.489,15.013,15.013,0,0,0,6,1.213Z"/><path id="Контур_14" data-name="Контур 14" d="M2677.792,4007.83V4038.7h6.615V4007.83h-6.615Z"/><path id="Контур_15" data-name="Контур 15" d="M2628.663,4007.83v7.445h17.64a11.159,11.159,0,0,1,4.528.926,11.761,11.761,0,0,1,0,21.573,11.021,11.021,0,0,1-4.535.926H2621.93v-6.74h24.359a4.606,4.606,0,0,0,1.911-.4,5.114,5.114,0,0,0,1.565-1.065,5.2,5.2,0,0,0,1.051-1.581,4.9,4.9,0,0,0,0-3.866,5.254,5.254,0,0,0-1.051-1.573,4.983,4.983,0,0,0-1.565-1.066,4.744,4.744,0,0,0-1.911-.4l-24.359.044V4007.83Z"/><path id="Контур_16" data-name="Контур 16" d="M2564.231,4022.1,2533,4008.565V4038.7h6.52v-20.117l24.711,10.68,24.719-10.68V4038.7h6.52v-30.136l-31.231,13.531h-.007Z"/><path id="Ellipse_3_copy_15" data-name="Ellipse 3 copy 15" d="M2824.06,4049.726c-15.883,0-29.856-10.224-38.015-25.726,8.159-15.5,22.132-25.726,38.015-25.726s29.857,10.224,38.016,25.726C2853.917,4039.5,2839.944,4049.726,2824.06,4049.726Zm.368-47.042a21.315,21.315,0,1,0,.371,0C2824.675,4002.681,2824.552,4002.682,2824.428,4002.684Zm7.718,17.641a3.675,3.675,0,1,1,3.675-3.675A3.675,3.675,0,0,1,2832.146,4020.325Z"/></g></svg>