<svg xmlns="http://www.w3.org/2000/svg" width="340.61" height="107.456" viewBox="0 0 340.61 107.456"><g id="Сгруппировать_38" data-name="Сгруппировать 38" transform="translate(-2687.695 -1660.272)"><path id="Контур_33" data-name="Контур 33" d="M3028.3,1766.314c-4.842,0-9.212-.025-13.582.011-1.866.016-1.7-1.236-1.694-2.454q.011-8.969,0-17.938c0-13.654.023-27.307-.028-40.961-.032-8.64-8.227-13.209-15.722-8.756a3.192,3.192,0,0,0-1.321,2.319c-.048,10.862.052,21.724.037,32.586,0,3.255,1.261,5.595,4.327,6.784,1.87.725,2.406,1.9,1.58,3.921h-27.445c-.841-1.9-.435-3.232,1.575-3.977a6.184,6.184,0,0,0,4.2-6.271q.082-15.531-.012-31.063c-.016-3.591-1.8-5.907-5.216-7.216-.9-.346-1.4-1.741-2.078-2.655a10.61,10.61,0,0,1,2.569-1.387c5.826-1.289,11.676-2.47,17.521-3.673.751-.154,1.518-.229,2.658-.4v7.466a67.263,67.263,0,0,1,6.659-4.2c2.574-1.228,5.287-2.6,8.054-2.915,10.246-1.179,17.188,4.743,17.627,15.152.385,9.153.246,18.329.275,27.5.037,11.56.011,23.121.011,34.681Z"/><path id="Контур_34" data-name="Контур 34" d="M2727.221,1732.9c-4.181,7.766-10.249,10.688-18.082,10.678-9.021-.011-14.661-5.008-17.846-12.65-5.036-12.086-5.045-24.315,1.629-35.919,7.337-12.757,25.515-13.551,34.156-1.693.105.145.321.209.947.6a51.425,51.425,0,0,1,.937-5.481c.2-.733,1.056-1.81,1.645-1.83,4.463-.154,8.933-.084,13.935-.084-.516,3.534-.907,6.741-1.465,9.92-1.017,5.783-2.372,11.517-3.145,17.33a34.338,34.338,0,0,0,3.325,19.445,6.448,6.448,0,0,0,5.355,3.794c.8.1,2.18,1.259,2.086,1.63-.257,1.021-1,2.5-1.824,2.7a61.042,61.042,0,0,1-11.383,2.057c-5.942.3-8.294-1.825-9.611-7.591C2727.73,1735.15,2727.582,1734.492,2727.221,1732.9Zm-1.2-19.22c-.589-6-1.108-12.372-4.459-18.036-3.563-6.02-10.373-6.156-13.392.108a40.071,40.071,0,0,0-3.4,12.836c-.831,7.53-.812,15.146,2.165,22.355,1.319,3.195,3.528,5.585,7.248,5.891,3.746.309,5.816-2.052,7.479-4.949C2724.832,1726.361,2725.368,1720.2,2726.022,1713.684Z"/><path id="Контур_35" data-name="Контур 35" d="M2864.42,1693.724c.265-.305.366-.367.38-.444,1.2-6.765,1.2-6.765,8-6.765h8.394c-.733,4.729-1.446,9.181-2.111,13.64-.937,6.28-2.409,12.552-2.556,18.854-.1,4.231,1.5,8.567,2.718,12.743a6.8,6.8,0,0,0,6.489,5.313c.608.035,1.667,1,1.638,1.476-.055.914-.527,2.313-1.207,2.6-4.954,2.06-10.209,3.222-15.463,1.933-1.982-.487-3.794-2.6-5.153-4.38-.995-1.3-1.123-3.267-1.761-5.334-.753,1.087-1.285,1.873-1.835,2.648-6.52,9.176-21.01,10.441-29,2.445a27.88,27.88,0,0,1-7.715-16.172c-1.364-9.446-.887-18.669,4.212-27.164a20.484,20.484,0,0,1,34.169-1.918A3.255,3.255,0,0,0,2864.42,1693.724Zm-24.155,21.444c1.151,5.266,2.066,10.939,3.706,16.394a7.46,7.46,0,0,0,7.274,5.31c3.611.108,5.632-2.256,7.1-5.092a37.785,37.785,0,0,0,4.022-20.526c-.433-5.747-1.24-11.541-4.727-16.445-3.512-4.94-9.238-4.8-12.588.237a9.626,9.626,0,0,0-1.58,3.183C2842.359,1703.651,2841.4,1709.1,2840.265,1715.168Z"/><path id="Контур_36" data-name="Контур 36" d="M2793.741,1727.37c3.366-6.461,6.536-12.564,6.837-19.587.1-2.2-.891-4.449-1.4-6.671-.178-.776-.425-1.536-.626-2.307-2.516-9.666,3.182-15.448,13.017-13.212,3.723.846,6.059,3.919,5.136,7.82a40.532,40.532,0,0,1-3.762,9.33c-5.422,10.31-11.09,20.492-16.48,30.818-.744,1.427-.647,3.4-.6,5.114.2,7.047,1.086,14.125.661,21.127-.416,6.865-7.49,9.925-13.6,6.541-2.817-1.559-3.7-4.281-3.482-7.126.413-5.244,1.3-10.448,1.89-15.68a9.378,9.378,0,0,0-.138-4.325q-8.157-20.225-16.576-40.341c-1.627-3.9-4.4-6.606-9.145-7.208-.061-1.317-.124-2.66-.2-4.32,7.3-.656,14.417-1.35,21.548-1.843.642-.045,1.711,1.079,2.012,1.875C2783.781,1700.5,2788.645,1713.652,2793.741,1727.37Z"/><path id="Контур_37" data-name="Контур 37" d="M2966.414,1733.528c-.358,1.11-.367,2.738-1.128,3.249-6.728,4.521-14.03,7.173-22.294,5.559a11.158,11.158,0,0,1-9.133-8.83,38.209,38.209,0,0,1-.918-8.58c-.115-8.471-.043-16.945-.044-25.418v-3.666c-3.524,0-6.793-.118-10.037.109-.576.041-1.4,1.464-1.519,2.331-1.086,7.7-1.742,15.463-3.14,23.1a72.745,72.745,0,0,1-4.415,14.491,11.288,11.288,0,0,1-9.491,7.316c-2.465.275-4.6-.329-5.955-2.538a6.683,6.683,0,0,1,.089-7.1,2.363,2.363,0,0,1,1.914-.843c4.462.41,7.251-2.027,8.324-5.812,1.95-6.877,3.35-13.914,4.859-20.909.687-3.188,1.085-6.437,1.632-9.767-4.2,0-8.145-.162-12.061.112-1,.071-1.868,1.577-2.874,2.32-.875.646-1.859,1.146-3.116,1.9-.3-8.718,3.9-13.874,11.255-13.942,17.468-.162,34.938-.069,52.408-.07a12.676,12.676,0,0,1,1.527.23,71.87,71.87,0,0,1-.679,7.38,2.941,2.941,0,0,1-2.213,1.586,65.566,65.566,0,0,1-8.078.063c-2-.094-2.83.473-2.8,2.649.107,8.671-.036,17.345.071,26.016.108,8.847,5.485,12.534,13.983,9.741,1.012-.333,2-.744,3-1.118Z"/><path id="Контур_38" data-name="Контур 38" d="M2845.149,1660.272h18.579a13.338,13.338,0,0,1-.4,2.462c-2.113,5.668-4.218,11.341-6.5,16.943a2.622,2.622,0,0,1-4.726-.034c-2.29-5.6-4.412-11.263-6.543-16.924A13.7,13.7,0,0,1,2845.149,1660.272Z"/><path id="Контур_39" data-name="Контур 39" d="M2710.722,1682.317a26.185,26.185,0,0,1,1.007-2.677,7.688,7.688,0,0,0-.4-8.666c-1.649-2.448-2.05-5.185-.055-7.759,1.643-2.121,5.148-2.915,8.2-1.953,3.173,1,5,4.115,4.42,7.814-.859,5.464-4.517,9.183-8.445,12.56C2714.55,1682.413,2712.685,1682.075,2710.722,1682.317Z"/></g></svg>