<svg id="Компонент_1_1" data-name="Компонент 1 – 1" xmlns="http://www.w3.org/2000/svg" width="2730.628" height="1675.723" viewBox="0 0 2730.628 1675.723"><g id="Сгруппировать_63" data-name="Сгруппировать 63" transform="translate(664.76 -173.757)"><path id="Контур_91" data-name="Контур 91" d="M-661.857,1220.767c49.49,2.911,110.617-33.475,145.552-64.038l222.686-835.44-107.707-34.934,2.912-8.734c69.869-8.733,205.218-29.1,253.249-66.949H-62.2c84.417,0,352.222,2.911,502.136,8.734,80.054,4.362,176.116,4.362,212.5,23.289V252.88S584.028,411.528,527.264,431.9L13.483,232.5l-119.342,443.92a717.323,717.323,0,0,0,94.6,5.823c113.52,0,203.767-24.741,282.361-49.491,5.823-1.451,17.459,7.283,21.83,5.823,7.274,30.572-45.119,216.863-87.327,197.945L-111.682,695.341l-144.092,537.071H-664.76Z"/></g><g id="Сгруппировать_64" data-name="Сгруппировать 64" transform="translate(664.76 -173.757)"><path id="Контур_92" data-name="Контур 92" d="M1150.484,356.357c106.725-41.979,186.486.585,193.223,92.474,7.376,125.571-115.732,257.628-292.789,327.272C773.2,885.341,590.067,843.439,576.24,665.863,562.8,485.712,720.061,312.352,991.721,205.5c75.191-29.575,287.009-57.14,263.965,8.884-6.68,29.294-27.016,77.29-60.969,90.645a67.369,67.369,0,0,1-20.643,4.487L1052.8,414.175C1087.062,387.368,1120.166,368.282,1150.484,356.357Zm-86.715,402.569C1219,697.867,1338.056,566.2,1330.362,454.081c-6.685-84.637-90.411-115.938-200.771-72.529-46.089,18.129-95.733,48.561-148.111,93.406l-168,146.077C832.981,741.835,925.51,813.309,1063.769,758.926ZM811.278,597.656c.029,3.622-.362,6.2-.331,9.828l346.095-298.545c-25.214-67.652-45.6-140.836-162.018-95.044C827.663,279.725,804.106,501.089,811.278,597.656Z"/></g><g id="Сгруппировать_65" data-name="Сгруппировать 65" transform="translate(664.76 -173.757)"><path id="Контур_93" data-name="Контур 93" d="M1092.061,1803.289c-94,102.479-287.258,13.045-378.336-61.909-127.975-105.319-226.347-277.152-222.512-368.753l9.9-7.327s126.042,8.971,169.108,48.281c0,0-17.484,235.071-11.307,244.022,43.135,50.97,85.459,93.525,124.791,116.23,88.833,51.84,123.335,35.759,151.672,10.725,122.681-102.072-378.009-473.514-193.94-697.18,73.062-88.779,237.749-75.068,414.144,70.1,118.751,97.728,174.39,222.8,181.247,249.713l-7.592,9.224s-136.074,7.907-186.725-22.173c0,0-1.031-229.029-9.1-235.668-87.215-67.907-177.946-117.44-232.976-50.572C810.3,1217.527,1294.1,1578.943,1092.061,1803.289Z"/></g><g id="Сгруппировать_66" data-name="Сгруппировать 66" transform="translate(664.76 -173.757)"><path id="Контур_94" data-name="Контур 94" d="M2017.931,1194.391c84.591,94.789,63.122,239.175-111.807,295.514-146.946,47.326-366.261,33-416.741-123.737L1348.305,928.129l-148.35,47.779-4.505-13.988,7-2.255c282.786-100.354,165.341-301.938,165.341-301.938C1398.2,593.863,1526.5,551,1526.5,551l18.59.192c22.16,16.03,75.773,230.462-236.28,374.217l506.607-163.161,4.505,13.988L1617,841.59l151.089,459.531c37.41,116.155,62.1,202.419,178.849,152.471,117.7-51.816,135.533-159.505,56.993-254.694Z"/></g></svg>