<svg xmlns="http://www.w3.org/2000/svg" width="2512.61" height="1692.866" viewBox="0 0 2512.61 1692.866"><g id="Сгруппировать_106" data-name="Сгруппировать 106" transform="translate(381.663 -77.757)"><g id="Сгруппировать_64" data-name="Сгруппировать 64"><path id="Контур_79" data-name="Контур 79" d="M-379.162,1069.966c42.645,2.508,95.317-28.845,125.419-55.18L-61.858,294.9l-92.809-30.1,2.509-7.525c60.205-7.526,176.833-25.078,218.22-57.689h71.489c72.74,0,303.5,2.508,432.681,7.525,68.981,3.759,151.755,3.759,183.108,20.069v8.776s-58.946,136.7-107.859,154.256L202.766,218.4,99.931,600.915a618.176,618.176,0,0,0,81.516,5.017c97.818,0,175.582-21.319,243.305-42.645,5.017-1.251,15.044,6.275,18.811,5.017,6.267,26.343-38.879,186.867-75.249,170.565L94.914,617.217-29.247,1080H-381.663Z"/></g><g id="Сгруппировать_65" data-name="Сгруппировать 65"><path id="Контур_80" data-name="Контур 80" d="M1268.127,260.357c106.725-41.979,186.486.585,193.223,92.474,7.376,125.571-115.732,257.628-292.789,327.272C890.84,789.341,707.709,747.439,693.883,569.863,680.439,389.712,837.7,216.352,1109.364,109.5c75.191-29.575,287.009-57.14,263.965,8.884-6.68,29.294-27.016,77.29-60.969,90.645a67.368,67.368,0,0,1-20.643,4.487L1170.441,318.175C1204.7,291.368,1237.809,272.282,1268.127,260.357Zm-86.715,402.569c155.232-61.059,274.287-192.73,266.593-304.845-6.686-84.637-90.411-115.938-200.771-72.529-46.089,18.129-95.733,48.561-148.111,93.406l-168,146.077C950.623,645.835,1043.152,717.309,1181.412,662.926ZM928.921,501.656c.028,3.622-.362,6.2-.332,9.828l346.1-298.545c-25.214-67.652-45.6-140.836-162.018-95.044C945.306,183.725,921.749,405.089,928.921,501.656Z"/></g><g id="Сгруппировать_66" data-name="Сгруппировать 66"><path id="Контур_81" data-name="Контур 81" d="M1138.1,1724.432c-94,102.479-287.258,13.045-378.337-61.91C631.785,1557.2,533.414,1385.37,537.248,1293.769l9.9-7.326s126.041,8.971,169.107,48.281c0,0-17.484,235.07-11.307,244.021,43.135,50.97,85.459,93.526,124.791,116.231,88.834,51.839,123.335,35.758,151.673,10.725,122.68-102.072-378.009-473.515-193.941-697.18,73.062-88.78,237.749-75.069,414.144,70.1,118.751,97.728,174.39,222.8,181.247,249.712l-7.591,9.224s-136.075,7.908-186.726-22.172c0,0-1.031-229.029-9.1-235.669-87.214-67.906-177.946-117.44-232.976-50.571C856.332,1138.669,1340.137,1500.085,1138.1,1724.432Z"/></g><g id="Сгруппировать_67" data-name="Сгруппировать 67"><path id="Контур_82" data-name="Контур 82" d="M2083.009,1153.619c84.591,94.789,63.123,239.175-111.807,295.514-146.946,47.326-366.261,33-416.741-123.737L1413.383,887.358l-148.349,47.778-4.505-13.988,7-2.255c282.787-100.354,165.341-301.937,165.341-301.937,30.405-63.865,158.711-106.728,158.711-106.728l18.589.192c22.16,16.03,75.774,230.462-236.279,374.218L1880.5,721.477,1885,735.464l-202.922,65.355,151.089,459.53c37.41,116.155,62.1,202.42,178.849,152.471,117.7-51.816,135.534-159.505,56.993-254.693Z"/></g></g></svg>