<svg xmlns="http://www.w3.org/2000/svg" width="134.666" height="64.149" viewBox="0 0 134.666 64.149"><g id="Сгруппировать_104" data-name="Сгруппировать 104" transform="translate(-1656.999 -1919.67)"><g id="Сгруппировать_103" data-name="Сгруппировать 103"><path id="Контур_178" data-name="Контур 178" d="M1711.367,1956.292a4.48,4.48,0,0,0-1.853-.27h-3.532v4.5h3.335a4.716,4.716,0,0,0,2.076-.345,2.1,2.1,0,0,0,1.187-2.026,1.967,1.967,0,0,0-1.213-1.856m-.862-6.745a3.494,3.494,0,0,0-1.533-.271h-2.99v4.25h2.817a3.6,3.6,0,0,0,1.827-.372,2.1,2.1,0,0,0-.121-3.607m-7.316,13.492v-16.283h5.979a6.436,6.436,0,0,1,2.818.518,4.068,4.068,0,0,1,2.4,3.681,3.682,3.682,0,0,1-1.954,3.412v.049a3.574,3.574,0,0,1,3.015,3.706,4.667,4.667,0,0,1-3.607,4.572,10.432,10.432,0,0,1-3.114.345Z"/><path id="Прямоугольник_31" data-name="Прямоугольник 31" transform="translate(1731.738 1946.756)" d="M0 0H2.792V16.284H0z"/><path id="Прямоугольник_32" data-name="Прямоугольник 32" transform="translate(1752.01 1946.756)" d="M0 0H2.789V16.284H0z"/><path id="Контур_179" data-name="Контур 179" d="M1763.818,1946.608a11.148,11.148,0,0,1,4.52.914l-.047,2.668a10.007,10.007,0,0,0-4.547-1.138c-1.53,0-2.841.472-2.841,1.757,0,3.335,8.378,2,8.378,7.509,0,3.041-2.571,4.965-6.3,4.965a10.27,10.27,0,0,1-5.508-1.454l1.159-2.273a8.579,8.579,0,0,0,4.449,1.284c1.682,0,3.238-.644,3.238-2.125,0-3.487-8.3-1.953-8.3-7.512,0-2.966,2.37-4.595,5.805-4.595"/><path id="Контур_180" data-name="Контур 180" d="M1782.5,1946.756h2.792v16.284H1782.5v-7.017h-7.908v7.017H1771.8v-16.284h2.792v6.672h7.908Z"/><path id="Контур_181" data-name="Контур 181" d="M1709.354,1965.9a10.526,10.526,0,0,1,4.523.964l-.842,2.372a7.483,7.483,0,0,0-3.382-.813c-3.091,0-5.016,2.617-5.016,5.805,0,3.214,1.8,5.831,5.016,5.831a7.4,7.4,0,0,0,3.382-.817l.842,2.376a10.539,10.539,0,0,1-4.523.961c-4.869,0-7.659-3.409-7.659-8.3,0-4.571,2.79-8.378,7.659-8.378"/><path id="Контур_182" data-name="Контур 182" d="M1770.446,1965.9a10.5,10.5,0,0,1,4.52.964l-.838,2.372a7.5,7.5,0,0,0-3.388-.813c-3.089,0-5.015,2.617-5.015,5.805,0,3.214,1.8,5.831,5.015,5.831a7.418,7.418,0,0,0,3.388-.817l.838,2.376a10.516,10.516,0,0,1-4.52.961c-4.87,0-7.662-3.409-7.662-8.3,0-4.571,2.792-8.378,7.662-8.378"/><path id="Контур_183" data-name="Контур 183" d="M1726.894,1974.225c0-3.556-2.024-5.829-4.768-5.829s-4.77,2.273-4.77,5.855c0,3.561,2.028,5.831,4.77,5.831s4.768-2.27,4.768-5.857m2.942-.051c0,4.9-3.115,8.4-7.709,8.4-4.644,0-7.709-3.385-7.709-8.275s3.113-8.4,7.709-8.4c4.647,0,7.709,3.388,7.709,8.275"/><path id="Контур_184" data-name="Контур 184" d="M1731.724,1976.2v-10.153h2.792V1976.3c0,2.715,1.459,3.731,3.78,3.731,2.373,0,3.782-1.016,3.782-3.731v-10.254h2.792V1976.2c0,4.425-2.523,6.376-6.621,6.376-4.029,0-6.525-1.951-6.525-6.376"/><path id="Контур_185" data-name="Контур 185" d="M1750.117,1970.473h-.049c.049.542.074,1.407.074,2.175v9.682h-2.792v-16.28h3.015l7.557,11.093h.051c-.051-.544-.073-1.409-.073-2.177v-8.916h2.79v16.28h-2.469Z"/><path id="Прямоугольник_33" data-name="Прямоугольник 33" transform="translate(1777.16 1966.048)" d="M0 0H2.787V16.284H0z"/><path id="Контур_186" data-name="Контур 186" d="M1785.29,1979.809h6.374v2.523H1782.5v-16.284h2.792Z"/><path id="Контур_187" data-name="Контур 187" d="M1736.658,1946.758v2.545h5.211v13.736h2.792V1949.3h5.214v-2.545Z"/><path id="Контур_188" data-name="Контур 188" d="M1723.034,1949.278h-2.891v4.943h2.766c2,0,2.941-1.039,2.941-2.522,0-1.333-.864-2.421-2.816-2.421m3.679,13.761c-2.37-4.915-2.989-6.3-3.977-6.3h-2.593v6.3h-2.79V1946.76h5.507c4.2,0,5.806,2.223,5.806,4.693a4.152,4.152,0,0,1-3.014,4.172v.027c.739.421,1.529,1.953,4.248,7.387Z"/><path id="Контур_189" data-name="Контур 189" d="M1675.809,1954.578a9.313,9.313,0,1,1-9.313-9.313,9.314,9.314,0,0,1,9.313,9.313"/><path id="Контур_190" data-name="Контур 190" d="M1695.738,1954.578a9.313,9.313,0,1,1-9.313-9.313,9.314,9.314,0,0,1,9.313,9.313"/><path id="Контур_191" data-name="Контур 191" d="M1675.809,1974.507a9.313,9.313,0,1,1-9.313-9.312,9.312,9.312,0,0,1,9.313,9.312"/><path id="Контур_192" data-name="Контур 192" d="M1695.738,1974.507a9.313,9.313,0,1,1-9.313-9.312,9.312,9.312,0,0,1,9.313,9.312"/></g><text id="Supported_by" data-name="Supported by" transform="translate(1656.999 1932.67)" font-size="12" font-family="SegoeUI, Segoe UI"><tspan x="0" y="0">Supported by</tspan></text></g></svg>