<svg xmlns="http://www.w3.org/2000/svg" width="135" height="64" viewBox="0 0 744.972 330.552">
  <g id="Сгруппировать_21" data-name="Сгруппировать 21" transform="translate(-168.028 -378.942)">
    <g id="Сгруппировать_19" data-name="Сгруппировать 19">
      <g id="Сгруппировать_1" data-name="Сгруппировать 1">
        <path id="Контур_1" data-name="Контур 1" d="M468.183,557.008c-2.181-.95-4.917-1.5-10.263-1.5H438.351v24.91h18.476c5.608,0,8.9-.686,11.5-1.91,4.387-2.183,6.575-6.039,6.575-11.225a10.892,10.892,0,0,0-6.72-10.277m-4.777-37.369a19.394,19.394,0,0,0-8.494-1.5H438.351v23.548h15.607c4.921,0,7.936-.827,10.12-2.065,3.564-2.038,5.346-5.47,5.346-9.851,0-4.515-2.06-8.2-6.018-10.13M422.88,594.383v-90.2H456c7.12,0,11.766,1.1,15.609,2.869A22.538,22.538,0,0,1,484.89,527.44c0,8.635-3.573,14.509-10.823,18.9v.274c10.4,2.317,16.7,9.567,16.7,20.528,0,12.178-7.384,21.488-19.981,25.327-4.522,1.362-9.443,1.914-17.252,1.914Z"/>
      </g>
      <g id="Сгруппировать_2" data-name="Сгруппировать 2">
        <rect id="Прямоугольник_1" data-name="Прямоугольник 1" width="15.466" height="90.205" transform="translate(581.029 504.178)"/>
      </g>
      <g id="Сгруппировать_3" data-name="Сгруппировать 3">
        <rect id="Прямоугольник_2" data-name="Прямоугольник 2" width="15.449" height="90.205" transform="translate(693.333 504.178)"/>
      </g>
      <g id="Сгруппировать_4" data-name="Сгруппировать 4">
        <path id="Контур_2" data-name="Контур 2" d="M758.741,503.358c9.723,0,19.579,2.331,25.041,5.062l-.259,14.785c-7.808-3.828-15.75-6.3-25.189-6.3-8.474,0-15.74,2.615-15.74,9.732,0,18.476,46.413,11.085,46.413,41.6,0,16.842-14.242,27.5-34.921,27.5-14.082,0-23.8-3.969-30.513-8.053l6.42-12.594a47.486,47.486,0,0,0,24.646,7.115c9.315,0,17.937-3.57,17.937-11.77,0-19.317-45.99-10.823-45.99-41.615,0-16.43,13.129-25.457,32.155-25.457"/>
      </g>
      <g id="Сгруппировать_5" data-name="Сгруппировать 5">
        <path id="Контур_3" data-name="Контур 3" d="M862.226,504.178h15.466v90.205H862.226V555.51H818.418v38.873H802.952V504.178h15.466v36.959h43.807Z"/>
      </g>
      <g id="Сгруппировать_6" data-name="Сгруппировать 6">
        <path id="Контур_4" data-name="Контур 4" d="M457.032,610.226a58.394,58.394,0,0,1,25.053,5.337l-4.662,13.144a41.406,41.406,0,0,0-18.738-4.5c-17.119,0-27.786,14.5-27.786,32.156,0,17.807,9.982,32.3,27.786,32.3a41,41,0,0,0,18.738-4.525l4.662,13.159a58.348,58.348,0,0,1-25.053,5.324c-26.974,0-42.428-18.883-42.428-45.986,0-25.317,15.454-46.408,42.428-46.408"/>
      </g>
      <g id="Сгруппировать_7" data-name="Сгруппировать 7">
        <path id="Контур_5" data-name="Контур 5" d="M795.459,610.226a58.247,58.247,0,0,1,25.038,5.337l-4.643,13.144a41.473,41.473,0,0,0-18.764-4.5c-17.114,0-27.784,14.5-27.784,32.156,0,17.807,10,32.3,27.784,32.3a41.07,41.07,0,0,0,18.764-4.525L820.5,697.3a58.2,58.2,0,0,1-25.038,5.324c-26.98,0-42.445-18.883-42.445-45.986,0-25.317,15.465-46.408,42.445-46.408"/>
      </g>
      <g id="Сгруппировать_8" data-name="Сгруппировать 8">
        <path id="Контур_6" data-name="Контур 6" d="M554.2,656.351c0-19.7-11.208-32.294-26.41-32.294s-26.425,12.592-26.425,32.435c0,19.728,11.235,32.3,26.425,32.3,15.206,0,26.41-12.575,26.41-32.444m16.3-.284c0,27.118-17.257,46.549-42.71,46.549-25.724,0-42.7-18.752-42.7-45.841s17.242-46.548,42.7-46.548c25.746,0,42.71,18.764,42.71,45.84"/>
      </g>
      <g id="Сгруппировать_9" data-name="Сгруппировать 9">
        <path id="Контур_7" data-name="Контур 7" d="M580.952,667.3V611.052h15.466v56.8c0,15.042,8.082,20.669,20.941,20.669,13.144,0,20.952-5.627,20.952-20.669v-56.8h15.466V667.3c0,24.512-13.976,35.318-36.675,35.318-22.324,0-36.15-10.806-36.15-35.318"/>
      </g>
      <g id="Сгруппировать_10" data-name="Сгруппировать 10">
        <path id="Контур_8" data-name="Контур 8" d="M682.846,635.566h-.273c.273,3,.407,7.791.407,12.044v53.639H667.514V611.063h16.7l41.861,61.452h.286c-.286-3.015-.407-7.808-.407-12.061V611.063h15.454v90.186H727.737Z"/>
      </g>
      <g id="Сгруппировать_11" data-name="Сгруппировать 11">
        <rect id="Прямоугольник_3" data-name="Прямоугольник 3" width="15.439" height="90.205" transform="translate(832.65 611.052)"/>
      </g>
      <g id="Сгруппировать_12" data-name="Сгруппировать 12">
        <path id="Контур_9" data-name="Контур 9" d="M877.692,687.284H913v13.976H862.226V611.052h15.466Z"/>
      </g>
      <g id="Сгруппировать_13" data-name="Сгруппировать 13">
        <path id="Контур_10" data-name="Контур 10" d="M608.287,504.193v14.1h28.867v76.092h15.466V518.292H681.5v-14.1Z"/>
      </g>
      <g id="Сгруппировать_14" data-name="Сгруппировать 14">
        <path id="Контур_11" data-name="Контур 11" d="M532.815,518.151H516.8v27.385h15.325c11.1,0,16.293-5.756,16.293-13.971,0-7.389-4.789-13.414-15.6-13.414m20.379,76.232c-13.128-27.226-16.557-34.9-22.031-34.9H516.8v34.9H501.341V504.2h30.507c23.26,0,32.166,12.318,32.166,26,0,12.044-6.977,20.121-16.7,23.114v.148c4.095,2.334,8.472,10.818,23.531,40.923Z"/>
      </g>
      <g id="Сгруппировать_15" data-name="Сгруппировать 15">
        <path id="Контур_12" data-name="Контур 12" d="M271.2,547.511a51.588,51.588,0,1,1-51.591-51.589A51.593,51.593,0,0,1,271.2,547.511"/>
      </g>
      <g id="Сгруппировать_16" data-name="Сгруппировать 16">
        <path id="Контур_13" data-name="Контур 13" d="M381.6,547.511a51.588,51.588,0,1,1-51.591-51.589A51.592,51.592,0,0,1,381.6,547.511"/>
      </g>
      <g id="Сгруппировать_17" data-name="Сгруппировать 17">
        <path id="Контур_14" data-name="Контур 14" d="M271.2,657.91a51.588,51.588,0,1,1-51.591-51.584A51.584,51.584,0,0,1,271.2,657.91"/>
      </g>
      <g id="Сгруппировать_18" data-name="Сгруппировать 18">
        <path id="Контур_15" data-name="Контур 15" d="M381.6,657.91a51.588,51.588,0,1,1-51.591-51.584A51.584,51.584,0,0,1,381.6,657.91"/>
      </g>
    </g>
    <g id="Сгруппировать_20" data-name="Сгруппировать 20">
      <path id="Контур_16" data-name="Контур 16" d="M171.255,419.1a20.492,20.492,0,0,0,10.371,2.925c5.917,0,9.374-3.124,9.374-7.645,0-4.189-2.393-6.582-8.443-8.909-7.313-2.593-11.834-6.382-11.834-12.7,0-6.981,5.784-12.167,14.493-12.167a20.351,20.351,0,0,1,9.906,2.194l-1.6,4.72a17.84,17.84,0,0,0-8.509-2.127c-6.117,0-8.444,3.656-8.444,6.714,0,4.189,2.726,6.25,8.909,8.643,7.579,2.925,11.435,6.582,11.435,13.164,0,6.914-5.119,12.9-15.69,12.9-4.321,0-9.041-1.264-11.435-2.859Z"/>
      <path id="Контур_17" data-name="Контур 17" d="M231.551,417.369c0,3.324.067,6.249.266,8.776h-5.186l-.332-5.252h-.133a12.108,12.108,0,0,1-10.637,5.983c-5.053,0-11.1-2.793-11.1-14.094V393.967h5.851v17.817c0,6.117,1.861,10.238,7.18,10.238a8.458,8.458,0,0,0,7.712-5.318,8.565,8.565,0,0,0,.532-2.992V393.967h5.85Z"/>
      <path id="Контур_18" data-name="Контур 18" d="M241.253,404.471c0-4.122-.132-7.446-.265-10.5h5.252l.266,5.518h.133a12.651,12.651,0,0,1,11.435-6.249c7.778,0,13.629,6.581,13.629,16.354,0,11.568-7.048,17.286-14.626,17.286-4.255,0-7.978-1.862-9.907-5.053h-.132v17.485h-5.785Zm5.785,8.576a13.089,13.089,0,0,0,.266,2.394,9.027,9.027,0,0,0,8.775,6.848c6.183,0,9.773-5.053,9.773-12.433,0-6.448-3.391-11.966-9.573-11.966a9.334,9.334,0,0,0-8.842,7.246,9.457,9.457,0,0,0-.4,2.393Z"/>
      <path id="Контур_19" data-name="Контур 19" d="M279.077,404.471c0-4.122-.133-7.446-.265-10.5h5.251l.267,5.518h.132a12.653,12.653,0,0,1,11.435-6.249c7.779,0,13.629,6.581,13.629,16.354,0,11.568-7.047,17.286-14.626,17.286-4.254,0-7.978-1.862-9.906-5.053h-.133v17.485h-5.784Zm5.784,8.576a13.176,13.176,0,0,0,.266,2.394,9.028,9.028,0,0,0,8.776,6.848c6.183,0,9.773-5.053,9.773-12.433,0-6.448-3.391-11.966-9.573-11.966a9.335,9.335,0,0,0-8.843,7.246,9.5,9.5,0,0,0-.4,2.393Z"/>
      <path id="Контур_20" data-name="Контур 20" d="M346.021,409.79c0,11.9-8.245,17.086-16.023,17.086-8.709,0-15.424-6.382-15.424-16.554,0-10.77,7.047-17.086,15.956-17.086C339.771,393.236,346.021,399.95,346.021,409.79Zm-25.53.332c0,7.047,4.055,12.366,9.773,12.366,5.585,0,9.773-5.252,9.773-12.5,0-5.451-2.726-12.365-9.64-12.365S320.491,404.006,320.491,410.122Z"/>
      <path id="Контур_21" data-name="Контур 21" d="M353.4,404.006c0-3.79-.067-7.048-.266-10.039h5.119l.2,6.316h.266c1.463-4.322,4.987-7.047,8.909-7.047a6.327,6.327,0,0,1,1.662.2v5.518a8.787,8.787,0,0,0-1.994-.2c-4.123,0-7.048,3.124-7.845,7.512a16.363,16.363,0,0,0-.266,2.726v17.153H353.4Z"/>
      <path id="Контур_22" data-name="Контур 22" d="M383.775,384.726v9.241h8.377v4.454h-8.377v17.352c0,3.989,1.13,6.249,4.388,6.249a13.035,13.035,0,0,0,3.39-.4l.266,4.388a14.326,14.326,0,0,1-5.185.8,8.109,8.109,0,0,1-6.316-2.46c-1.662-1.729-2.26-4.588-2.26-8.377V398.421h-4.987v-4.454h4.987v-7.712Z"/>
      <path id="Контур_23" data-name="Контур 23" d="M401.59,411.12c.133,7.911,5.185,11.169,11.036,11.169a21.154,21.154,0,0,0,8.909-1.663l1,4.189a26.059,26.059,0,0,1-10.7,1.995c-9.906,0-15.823-6.516-15.823-16.223s5.718-17.351,15.092-17.351c10.5,0,13.3,9.241,13.3,15.158a22.164,22.164,0,0,1-.2,2.726Zm17.152-4.189c.067-3.723-1.529-9.507-8.111-9.507-5.917,0-8.509,5.451-8.975,9.507Z"/>
      <path id="Контур_24" data-name="Контур 24" d="M459.426,378.942v38.892c0,2.859.066,6.117.265,8.311h-5.252l-.266-5.585h-.132a11.9,11.9,0,0,1-10.97,6.316c-7.779,0-13.762-6.582-13.762-16.355-.066-10.7,6.582-17.285,14.427-17.285,4.919,0,8.243,2.327,9.706,4.919h.133V378.942Zm-5.851,28.122a10.3,10.3,0,0,0-.266-2.46,8.6,8.6,0,0,0-8.443-6.781c-6.05,0-9.64,5.319-9.64,12.432,0,6.516,3.191,11.9,9.507,11.9a8.8,8.8,0,0,0,8.576-6.981,10.141,10.141,0,0,0,.266-2.527Z"/>
      <path id="Контур_25" data-name="Контур 25" d="M482.955,426.145c.132-2.194.265-5.452.265-8.311V378.942H489v20.211h.133c2.061-3.59,5.784-5.917,10.97-5.917,7.978,0,13.629,6.648,13.562,16.421,0,11.5-7.246,17.219-14.426,17.219-4.654,0-8.377-1.8-10.77-6.05h-.2l-.266,5.319Zm6.049-12.9a10.893,10.893,0,0,0,.267,2.128,9.025,9.025,0,0,0,8.775,6.847c6.117,0,9.773-4.986,9.773-12.366,0-6.448-3.324-11.966-9.573-11.966a9.326,9.326,0,0,0-8.909,7.179,11.531,11.531,0,0,0-.333,2.394Z"/>
      <path id="Контур_26" data-name="Контур 26" d="M522.707,393.967l7.047,19.014c.732,2.127,1.53,4.654,2.061,6.582h.133c.6-1.928,1.263-4.388,2.061-6.715l6.383-18.881h6.182L537.8,416.9c-4.189,11.036-7.048,16.688-11.036,20.145a15.859,15.859,0,0,1-7.18,3.789l-1.463-4.92a15.466,15.466,0,0,0,5.119-2.858,17.757,17.757,0,0,0,4.92-6.516,4.2,4.2,0,0,0,.465-1.4,5.106,5.106,0,0,0-.4-1.529l-11.9-29.651Z"/>
    </g>
  </g>
</svg>
