<svg xmlns="http://www.w3.org/2000/svg" width="247.82" height="39.758" viewBox="0 0 247.82 39.758"><g id="Сгруппировать_97" data-name="Сгруппировать 97" transform="translate(-384.815 -2777.607)" fill="#fff"><path id="Контур_167" data-name="Контур 167" d="M624.473,2802.765a29.874,29.874,0,0,0-.021-3.078c-.128-1.193-1.215-1.878-2.823-1.882-4.821-.011-9.646-.117-14.463.035-2.769.087-4.327-1.881-3.589-4.776h3.307c5.544,0,11.089-.022,16.634.027a11.363,11.363,0,0,1,5.889,1.482,6.152,6.152,0,0,1,3.2,5.559c.008,5.3-.017,10.606.027,15.908.009.995-.283,1.306-1.289,1.3-6.871-.04-13.742.018-20.612-.057a17.3,17.3,0,0,1-4.614-.706c-2.715-.795-3.961-2.595-4.062-5.436-.024-.682-.012-1.365,0-2.048.047-3.476,1.77-5.454,5.249-5.889a44.408,44.408,0,0,1,4.918-.334c3.495-.048,6.991-.008,10.487-.014C623.261,2802.855,623.814,2802.8,624.473,2802.765Zm-6.609,10.188.005-.109c1.887,0,3.774-.027,5.66.013.743.016.993-.254.969-.977-.041-1.2-.056-2.41,0-3.611.041-.865-.311-1.1-1.126-1.09-3.452.035-6.906-.039-10.356.056a9.315,9.315,0,0,0-3.238.752,2.052,2.052,0,0,0-1.057,2.926,3.938,3.938,0,0,0,2.31,1.646C613.283,2812.877,615.584,2812.846,617.864,2812.953Z"/><path id="Контур_168" data-name="Контур 168" d="M470.119,2802.86c0-1.219.065-2.223-.018-3.214-.092-1.115-1.2-1.838-2.718-1.842-4.42-.011-8.839,0-13.259-.006-.643,0-1.286.008-1.929-.007a3.179,3.179,0,0,1-3.012-4.177c.091-.273.73-.511,1.117-.513q8.98-.054,17.96-.022a24.012,24.012,0,0,1,3.354.269c3.48.508,5.85,2.473,6.527,5.382a7.486,7.486,0,0,1,.162,1.672c.013,5.182-.024,10.365.036,15.546.013,1.148-.385,1.4-1.451,1.393-6.79-.043-13.581.016-20.37-.057a20.677,20.677,0,0,1-4.622-.67,4.972,4.972,0,0,1-4.06-4.65,20.5,20.5,0,0,1,.035-4.311,4.574,4.574,0,0,1,3.825-4.131,32.2,32.2,0,0,1,5.84-.639c3.573-.1,7.151-.025,10.727-.023Zm-6.5,10.1.005-.112c1.848,0,3.7-.028,5.544.013.746.017.993-.257.969-.98-.041-1.2-.057-2.412,0-3.614.042-.873-.324-1.107-1.134-1.083-1.525.045-3.054-.015-4.58.02-2.525.059-5.058.058-7.57.275a2.631,2.631,0,0,0-2.674,2.591,2.584,2.584,0,0,0,2.6,2.525C459.041,2812.835,461.333,2812.845,463.615,2812.956Z"/><path id="Контур_169" data-name="Контур 169" d="M566.934,2817.318c-.038-.524-.09-.916-.09-1.307-.006-7.19.012-14.381-.026-21.572-.005-1.007.2-1.443,1.319-1.39,1.884.089,3.778.07,5.663-.007,1.138-.047,1.422.4,1.389,1.47-.077,2.488-.007,4.981-.057,7.471-.018.868.217,1.2,1.148,1.192,3.656-.048,7.313-.057,10.968,0,1.057.017,1.3-.418,1.288-1.348-.035-2.531.015-5.062-.035-7.592-.017-.891.273-1.206,1.172-1.182,2.007.053,4.018.048,6.026.008.79-.016,1.07.292,1.068,1.049q-.018,11.148-.006,22.295c0,.674-.276.925-.936.919-2.13-.02-4.26-.032-6.388,0-.785.013-.938-.36-.932-1.032.025-2.45-.029-4.9.041-7.35.032-1.153-.354-1.517-1.517-1.5-3.575.069-7.152.05-10.727.005-.9-.011-1.191.274-1.172,1.169.055,2.53.008,5.062.052,7.592.014.816-.224,1.138-1.091,1.119C571.764,2817.284,569.435,2817.318,566.934,2817.318Z"/><path id="Контур_170" data-name="Контур 170" d="M549.95,2793.057c3.294,0,6.589.031,9.883-.017,1-.015,1.442.211,1.414,1.329-.062,2.4-.757,3.16-3.176,3.162-5.343,0-10.687-.006-16.03.012a5.449,5.449,0,0,0-1.765.256,2.5,2.5,0,0,0-1.783,2.576,2.808,2.808,0,0,0,1.929,2.508,6.887,6.887,0,0,0,1.9.259c3.415.028,6.832-.052,10.244.045,2.8.079,5.539.581,7.61,2.732a6.559,6.559,0,0,1-1.586,9.878,13.176,13.176,0,0,1-6.265,1.48c-6.588.072-13.177.019-19.766.063-.973.007-1.233-.324-1.218-1.252.04-2.409.835-3.252,3.271-3.255,5.5-.006,11.009.008,16.513-.009,1.861-.006,2.828-.8,2.952-2.321.146-1.788-.77-2.856-2.71-2.913-2.689-.08-5.384.009-8.074-.059a37.874,37.874,0,0,1-5.75-.408c-2.542-.459-4.913-1.463-6.111-4-1.826-3.86.235-8.029,4.635-9.3a34.343,34.343,0,0,1,4.728-.752,8.791,8.791,0,0,1,1.2-.017Z"/><path id="Контур_171" data-name="Контур 171" d="M417.864,2814.612v1.926c-.907.091-1.807.218-2.711.263q-5.355.268-10.712.493a19.009,19.009,0,0,1-19.626-19.319c0-7.434,2.622-13.372,8.946-17.466a17.543,17.543,0,0,1,9.448-2.854c4.782-.06,9.565-.058,14.347-.025,9.886.067,17.557,6.592,19.054,16.34a35.872,35.872,0,0,1,.084,6.257c-.126,5.26-.308,10.519-.466,15.778-.02.642.087,1.291-.924,1.329-.907.035-1.17-.283-1.19-1.164q-.18-7.648-.456-15.295a61.556,61.556,0,0,0-.444-7.08,15.382,15.382,0,0,0-15.081-12.88c-4.7-.02-9.4,0-14.106-.008a15.674,15.674,0,0,0-15.936,15.723c-.109,5.433,1.343,10.156,5.606,13.759a15.557,15.557,0,0,0,9.728,3.661C408.194,2814.233,412.963,2814.421,417.864,2814.612Z"/><path id="Контур_172" data-name="Контур 172" d="M483.944,2817.32c-.03-.637-.071-1.11-.072-1.583q-.006-7.773,0-15.547c0-3.7,1.5-5.64,5.131-6.487a18.265,18.265,0,0,1,3.922-.575c6.265-.059,12.531-.027,18.781-.027.8,2.277-.136,4.018-2.439,4.184-2.559.185-5.137.1-7.707.135-2.208.034-4.418.044-6.624.131-2.123.083-2.739.779-2.739,2.913,0,2.679,0,2.693,2.726,2.685,4.178-.013,8.356-.071,12.534-.048.682,0,1.726-.524,1.951.718.338,1.864-.214,3.1-1.6,3.417a13.536,13.536,0,0,1-2.862.252c-3.9.043-7.793.068-11.69.05-.859,0-1.1.308-1.081,1.127.043,2.53.02,5.061.017,7.592,0,.516.1,1.078-.738,1.071C489,2817.307,486.554,2817.32,483.944,2817.32Z"/><path id="Контур_173" data-name="Контур 173" d="M417.848,2808.723v1.823c-.547.071-1.053.171-1.563.2-4.012.2-8.026.34-12.036.567a12.953,12.953,0,0,1-13.456-12.549c-.246-4.927.968-9.237,5.014-12.405a11.823,11.823,0,0,1,7.326-2.692c4.984-.033,9.968-.083,14.951-.008a12.593,12.593,0,0,1,12.661,12.993c-.1,6.586-.345,13.17-.523,19.755-.042,1.571-1.179.677-1.988.948-.1-2.341-.221-4.573-.3-6.806-.178-5.1-.216-10.2-.538-15.29a9.3,9.3,0,0,0-9.1-8.346c-4.863-.02-9.726,0-14.589.015a9.455,9.455,0,0,0-9.581,9.3,18.04,18.04,0,0,0,.566,5.34,9.27,9.27,0,0,0,8.794,6.484c4.215.12,8.427.331,12.641.512C416.68,2808.582,417.231,2808.662,417.848,2808.723Z"/><path id="Контур_174" data-name="Контур 174" d="M422.012,2817.348c0-2.119.038-4.076-.007-6.032-.113-4.817-.27-9.633-.4-14.449-.067-2.528-1.42-3.988-3.956-4.017q-6.869-.078-13.74,0c-2.438.028-3.819,1.534-3.838,3.985,0,.522-.019,1.045,0,1.566a3.527,3.527,0,0,0,3.42,3.637c3.607.206,7.22.3,10.83.44,1.153.046,2.306.108,3.426.161.332,1.946.31,2-1.434,2.088-4.05.2-8.108.287-12.15.593a7.124,7.124,0,0,1-7.413-7.257c.028-3.236.678-5.993,3.722-7.639a5.429,5.429,0,0,1,2.378-.74c5.221-.068,10.445-.132,15.663-.008a6.508,6.508,0,0,1,6.3,6.535c-.1,6.743-.381,13.484-.624,20.225C424.133,2817.948,422.995,2817.079,422.012,2817.348Z"/><path id="Контур_175" data-name="Контур 175" d="M525.374,2805.321c0,3.572-.027,7.144.017,10.715.012.978-.275,1.349-1.294,1.31-1.964-.074-3.933-.05-5.9-.024-.759.01-1.062-.238-1.059-1.04q.038-11.016,0-22.032c0-.87.267-1.224,1.17-1.2,1.966.049,3.935.059,5.9,0,.918-.026,1.176.33,1.169,1.192-.029,3.692-.012,7.384-.012,11.076Z"/></g></svg>