<svg xmlns="http://www.w3.org/2000/svg" width="142.226" height="37.468" viewBox="0 0 142.226 37.468"><g id="Сгруппировать_96" data-name="Сгруппировать 96" transform="translate(-707.527 -2778.752)" fill="#fff"><path id="Контур_163" data-name="Контур 163" d="M764.961,2778.752q5.629,15.668,11.271,31.329c.733,2.024,1.044,4.5,4.13,4.456-1,1.108-9.6,1.411-11.989.152a24.071,24.071,0,0,1,2.692-.455c1.343-.083,1.808-.678,1.385-1.949-1.189-3.58-2.345-7.172-3.63-10.717a2.03,2.03,0,0,0-1.546-.976c-3.206-.092-6.419-.115-9.622.014a2.487,2.487,0,0,0-1.81,1.273c-1.312,3.23-2.41,6.545-3.664,9.8-.7,1.832-.245,2.68,1.775,2.645a10.173,10.173,0,0,1,1.961.368c-1.254.933-5.89,1.154-8.982.524,5.478-3.715,5.588-10.263,8.111-15.514,3.015-6.274,5.552-12.778,8.326-19.169a12.375,12.375,0,0,1,1.164-1.781Zm3.09,20.249c-1.816-5.059-3.537-9.853-5.482-15.273L756.855,2799Z"/><path id="Контур_164" data-name="Контур 164" d="M812.887,2778.752v8.658l-.6.091c-.155-.807-.336-1.61-.458-2.422-.441-2.938-.7-3.213-3.614-3.305-3.346-.106-6.7-.106-10.038-.259-1.71-.078-2.444.441-2.4,2.28.1,4.332.033,8.667.033,12.99,3.917,0,7.661.067,11.4-.081.487-.019,1.053-1.087,1.358-1.769.285-.64.271-1.412.889-2.078v10.355l-.475.08a21.163,21.163,0,0,1-.354-2.667c-.017-1.382-.5-2.147-2-2.135-3.485.029-6.97.009-10.814.009,0,2.142-.013,4.173,0,6.205.019,2.35.159,4.7.066,7.049-.073,1.816.541,2.675,2.421,2.566a13.066,13.066,0,0,1,2.179.249c-1.138,1.067-9.722,1.344-12.494.466.343-.248.59-.58.813-.564,2.649.193,2.855-1.358,2.832-3.486-.092-8.4-.038-16.8-.038-25.206,0-3.821,0-3.821-3.4-5.2a17.12,17.12,0,0,1,2.186-.3c6.482-.064,12.965-.052,19.445-.2.746-.016,1.474-.867,2.21-1.331Z"/><path id="Контур_165" data-name="Контур 165" d="M840.559,2797.43c1.444.48,2.6.8,3.711,1.247,3.14,1.251,5.28,3.327,5.466,6.923a8.3,8.3,0,0,1-4.9,8.509,13.013,13.013,0,0,1-5.105,1.366c-5.124.159-10.256.026-15.386-.008a4.807,4.807,0,0,1-1.031-.316c.47-.352.715-.694.939-.68,2.521.156,2.8-1.3,2.785-3.379-.08-8.764-.033-17.53-.034-26.295,0-3.061,0-3.057-2.923-3.536-.173-.028-.322-.2-.884-.568a11.017,11.017,0,0,1,1.795-.363c4.774-.021,9.549-.068,14.322.006,4.741.073,7.778,2.3,8.631,6.14.922,4.152-.851,7.571-5.065,9.764C842.2,2796.594,841.517,2796.94,840.559,2797.43Zm-9.274.571c0,5.377-.041,10.063.06,14.745a2,2,0,0,0,1.293,1.449,32.768,32.768,0,0,0,6.584-.048c3.639-.517,6-3.7,6.188-7.86.178-3.844-1.763-6.869-5.429-7.608A70.13,70.13,0,0,0,831.285,2798Zm.008-.852c1.956,0,3.588.041,5.219-.008,4.716-.141,7.61-2.917,7.7-7.336.092-4.753-2.835-8.077-7.468-8.414a15.485,15.485,0,0,0-3.825.027c-.609.109-1.538.94-1.552,1.464C831.242,2787.557,831.293,2792.235,831.293,2797.149Z"/><path id="Контур_166" data-name="Контур 166" d="M739.216,2803.746c-.129,2.33-.212,4.664-.425,6.986a2.194,2.194,0,0,1-.891,1.353c-8.3,5.881-18.063,5.138-24.464-.021-3.822-3.081-5.226-7.389-5.762-12.017-.929-8.021,2.579-15.254,9.175-18.513,5.911-2.92,12.011-2.516,18.053-.186.655.253,1.3.546,2.051.868l1.35-2.4v11.742l-.731.071a23.823,23.823,0,0,0-.621-4.2,8.025,8.025,0,0,0-2.037-3.734,13.484,13.484,0,0,0-21.569,6.665,20.493,20.493,0,0,0,1.463,16.764c3.254,5.889,11.264,8.923,17.561,6.613,3.209-1.178,5.018-3.334,5.232-6.814a26.955,26.955,0,0,1,.62-3.371Z"/></g></svg>