<svg xmlns="http://www.w3.org/2000/svg" width="88.969" height="64.357" viewBox="0 0 88.969 64.357"><g id="Сгруппировать_99" data-name="Сгруппировать 99" transform="translate(-1446.216 -2765.307)"><path id="Контур_176" data-name="Контур 176" d="M1446.216,2797.438c.211-.179.379-.3.525-.447q11.344-11.34,22.681-22.687a29.049,29.049,0,0,1,16.625-8.617c9.474-1.4,17.884,1.071,24.893,7.624,4.793,4.482,9.326,9.243,13.972,13.882q4.92,4.911,9.83,9.829c.144.144.281.293.443.463-.144.154-.264.292-.394.422-7.72,7.721-15.4,15.479-23.173,23.15a29.674,29.674,0,0,1-41.94-.143q-11.5-11.457-22.964-22.957C1446.57,2797.814,1446.433,2797.664,1446.216,2797.438Zm44.478,17.838a17.791,17.791,0,1,0-17.76-18.017A17.785,17.785,0,0,0,1490.694,2815.276Z" fill="#fff"/></g></svg>