<svg xmlns="http://www.w3.org/2000/svg" width="172.374" height="39.953" viewBox="0 0 172.374 39.953"><g id="Сгруппировать_98" data-name="Сгруппировать 98" transform="translate(-908.215 -2777.51)" fill="#fff"><path id="Прямоугольник_22" data-name="Прямоугольник 22" transform="translate(908.215 2777.51)" d="M0 0H39.952V13.829H0z"/><path id="Прямоугольник_23" data-name="Прямоугольник 23" transform="rotate(90 -921.279 1856.231)" d="M0 0H39.952V13.829H0z"/><path id="Прямоугольник_24" data-name="Прямоугольник 24" transform="rotate(90 -904.223 1873.288)" d="M0 0H39.952V13.829H0z"/><path id="Прямоугольник_25" data-name="Прямоугольник 25" transform="rotate(90 -861.659 1915.852)" d="M0 0H39.952V13.829H0z"/><path id="Прямоугольник_26" data-name="Прямоугольник 26" transform="rotate(90 -858.667 1918.844)" d="M0 0H39.952V13.829H0z"/><path id="Прямоугольник_27" data-name="Прямоугольник 27" transform="rotate(90 -885.016 1892.495)" d="M0 0H39.952V13.829H0z"/><path id="Прямоугольник_28" data-name="Прямоугольник 28" transform="rotate(180 516.801 1408.731)" d="M0 0H39.952V13.829H0z"/><circle id="Эллипс_3" data-name="Эллипс 3" cx="19.976" cy="19.976" r="19.976" transform="translate(1040.637 2777.511)"/><circle id="Эллипс_4" data-name="Эллипс 4" cx="9.988" cy="9.988" r="9.988" transform="translate(967.74 2777.511)"/><circle id="Эллипс_5" data-name="Эллипс 5" cx="9.988" cy="9.988" r="9.988" transform="translate(967.74 2797.484)"/><path id="Прямоугольник_29" data-name="Прямоугольник 29" transform="rotate(90 -899.891 1877.619)" d="M0 0H39.952V13.829H0z"/></g></svg>