<svg xmlns="http://www.w3.org/2000/svg" width="87.101" height="109.532" viewBox="0 0 87.101 109.532"><g id="Сгруппировать_94" data-name="Сгруппировать 94" transform="translate(-1019.802 -2380.941)" fill="#fff"><path id="Контур_154" data-name="Контур 154" d="M1059.827,2458.047v-17.9c-1.066-.085-2.091-.121-3.1-.255a16.118,16.118,0,0,1-13.367-12.105,19.075,19.075,0,0,1-.474-3.974c-.058-2.766-.116-5.542.055-8.3a17.384,17.384,0,0,1,6.113-12.188l4.555,5.291c-.546.626-1.105,1.194-1.58,1.826a10.441,10.441,0,0,0-2.131,6.42c0,2.368-.01,4.736,0,7.1a9.218,9.218,0,0,0,9.736,9.068,1.516,1.516,0,0,0,.2-.053v-.6q0-12.666,0-25.333a7.76,7.76,0,0,1,6.333-7.84,11.893,11.893,0,0,1,6.077.521c6.494,2.137,10.32,6.618,11.479,13.357a11.8,11.8,0,0,1,.13,1.925c.013,3.012.006,6.024.006,9.036a16.192,16.192,0,0,1-13.109,15.724c-1.242.225-2.515.277-3.823.415v10.809c.633-.087,1.263-.149,1.885-.262a31.7,31.7,0,0,0,26.031-28.564,31.515,31.515,0,0,0-24.869-33.455c-10.767-2.2-20.294.519-28.344,8a29.974,29.974,0,0,0-9.585,18.808,30.94,30.94,0,0,0,8.557,26,30.178,30.178,0,0,0,11.723,7.679.687.687,0,0,1,.537.779c-.024,2.071-.011,4.143-.011,6.215v.524c-14.93-3.722-29.3-19.212-28.06-39.583a38.648,38.648,0,1,1,35.032,40.917Zm7.062-25.069a1.917,1.917,0,0,0,.232.055,9.242,9.242,0,0,0,9.724-9.083q.012-4.384-.005-8.77a8.028,8.028,0,0,0-.136-1.451,9.163,9.163,0,0,0-8.53-7.627c-1.018-.083-1.285.161-1.285,1.182q0,12.527,0,25.055Z"/><path id="Контур_155" data-name="Контур 155" d="M1052.043,2489.792l.643-1.4c.063-.01.107-.031.127-.017,1.2.81,2.265.214,2.863-.928a2.711,2.711,0,0,0,.075-2.628c-1.288-2.829-2.458-5.713-3.7-8.634a4.026,4.026,0,0,0-.28.318c-.941,1.337-1.872,2.682-2.825,4.011a.513.513,0,0,0,.015.721c1.18,1.613,2.337,3.242,3.58,4.974-.818,0-1.535.017-2.25-.015-.125-.006-.263-.206-.357-.342-.815-1.17-1.639-2.336-2.421-3.528a.958.958,0,0,0-1.044-.553,5.028,5.028,0,0,1-.773.006v4.4h-1.952v-10.162h1.925v4.073a10.557,10.557,0,0,0,1.246-.016c.149-.018.309-.2.408-.338.779-1.132,1.534-2.281,2.327-3.4a.9.9,0,0,1,.618-.336c1.148-.033,2.3,0,3.446-.025a.6.6,0,0,1,.679.464c.866,2.365,1.754,4.721,2.638,7.08a1.159,1.159,0,0,0,.108.186c.9-2.443,1.807-4.885,2.7-7.334a.5.5,0,0,1,.563-.393c.551.023,1.1.006,1.738.006-.488,1.233-.943,2.39-1.4,3.545q-1.7,4.262-3.4,8.519a3.445,3.445,0,0,1-5.095,1.9C1052.182,2489.908,1052.133,2489.862,1052.043,2489.792Z"/><path id="Контур_156" data-name="Контур 156" d="M1025.358,2475.736v-3.646h1.852v3.639a5.832,5.832,0,0,1,4.689,2.382,5.252,5.252,0,0,1,.843,3.169c-.019,2.452-1.8,4.942-5.51,5.224v3.707h-1.865v-3.727a5.918,5.918,0,0,1-4.633-2.307,5.212,5.212,0,0,1-.923-3.457,4.814,4.814,0,0,1,1.743-3.6A6.243,6.243,0,0,1,1025.358,2475.736Zm-.049,9v-7.319a3.661,3.661,0,0,0,0,7.319Zm1.948-7.314v7.326a3.548,3.548,0,0,0,3.54-3.723A3.491,3.491,0,0,0,1027.257,2477.427Z"/><path id="Контур_157" data-name="Контур 157" d="M1097.646,2481.362h-7.413a3.291,3.291,0,0,0,1.585,2.861c1.349.829,2.83.641,4.937-.641l.824,1.417a6.141,6.141,0,0,1-4.2,1.46,5.214,5.214,0,0,1-4.909-3.412,5.64,5.64,0,0,1,1.492-6.158,4.954,4.954,0,0,1,5.151-.819,4.023,4.023,0,0,1,2.518,3.4A12.188,12.188,0,0,1,1097.646,2481.362Zm-1.989-1.473a2.378,2.378,0,0,0-2.353-2.617,2.82,2.82,0,0,0-2.935,2.617Z"/><path id="Контур_158" data-name="Контур 158" d="M1039.816,2479.786a1.944,1.944,0,0,0-2-2.375,5.017,5.017,0,0,0-3.054.994l-.795-1.438a5.2,5.2,0,0,1,2.349-1.067,5.864,5.864,0,0,1,2.993.025,3.269,3.269,0,0,1,2.5,3.329c.1,2.293.023,4.592.023,6.927h-1.83v-1.662c-.183.235-.272.351-.363.466a3.809,3.809,0,0,1-4.263,1.273,2.912,2.912,0,0,1-2.129-2.677,2.827,2.827,0,0,1,1.933-3.02,25.744,25.744,0,0,1,3.456-.707A9.423,9.423,0,0,1,1039.816,2479.786Zm0,1.5a7.984,7.984,0,0,0-3.555.491,1.567,1.567,0,0,0-1.023,1.44,1.721,1.721,0,0,0,2.027,1.654A3.1,3.1,0,0,0,1039.816,2481.285Z"/><path id="Контур_159" data-name="Контур 159" d="M1070.394,2486.2h-1.93v-8.57h-2.986c0,.469,0,.932,0,1.4a14.8,14.8,0,0,1-.53,4.332,3.756,3.756,0,0,1-2.927,2.869c-.219.044-.444.05-.7.078v-1.759a2.572,2.572,0,0,0,1.942-2.327,36.3,36.3,0,0,0,.314-3.732c.044-.812.008-1.629.008-2.473h6.814Z"/><path id="Контур_160" data-name="Контур 160" d="M1072.454,2486.22v-10.2h1.956c0,.7-.011,1.41,0,2.115.01.5-.124,1.153.135,1.441.225.249.913.075,1.4.1a12.158,12.158,0,0,1,1.659.116,2.977,2.977,0,0,1,2.585,3.406,3.007,3.007,0,0,1-2.872,2.964,8.587,8.587,0,0,1-.937.057C1075.093,2486.224,1073.807,2486.22,1072.454,2486.22Zm1.982-1.429c.62,0,1.173.008,1.725-.005a3.768,3.768,0,0,0,.67-.086,1.6,1.6,0,0,0,1.315-1.589c.071-.9-.289-1.672-1.037-1.827a22.491,22.491,0,0,0-2.673-.243Z"/><path id="Контур_161" data-name="Контур 161" d="M1088.248,2476.014v1.657h-3.541v8.52h-1.956v-8.486h-3.536v-1.691Z"/><path id="Контур_162" data-name="Контур 162" d="M1103.387,2486.187h-1.982V2477.7h-3.521v-1.68h9.019v1.642h-3.516Z"/></g></svg>