<svg xmlns="http://www.w3.org/2000/svg" width="175.426" height="62.078" viewBox="0 0 175.426 62.078"><g id="Сгруппировать_91" data-name="Сгруппировать 91" transform="translate(-765.739 -2404.668)" fill="#fff"><path id="Контур_138" data-name="Контур 138" d="M910.8,2441.258c-1.89-.744-3.766-1.53-5.675-2.223a40,40,0,0,0-8.393-2.11,21.191,21.191,0,0,0-5.834.164c-3.726.536-7.447,1.111-11.172,1.652-2.751.4-5.5.81-8.261,1.143-2.392.29-4.8.477-7.2.711a139.528,139.528,0,0,1-16.51.506,56.548,56.548,0,0,1-32.127-10.712c-1.234-.874-2.407-1.842-3.554-2.828a.881.881,0,0,0-1.149-.121,87.678,87.678,0,0,1-16.347,6.317,38.78,38.78,0,0,1-12.082.939c-2.229-.13-4.455-.332-6.674-.557,2.493-.153,4.987-.289,7.478-.464,6.519-.458,12.887-1.489,18.651-4.865,1.968-1.153,3.98-2.232,5.972-3.345.9-.5,1.79-1.026,2.7-1.5,1.609-.841,1.6-.791,2.987.363,2.056,1.713,4.07,3.5,6.26,5.023a45.277,45.277,0,0,0,16.979,6.966,69.078,69.078,0,0,0,12.269,1.331c1.536.039,3.071.1,4.607.123a126.039,126.039,0,0,0,14.656-.652c3.857-.4,7.714-.792,11.566-1.235a87.279,87.279,0,0,1,11.6-.788,34.88,34.88,0,0,1,13.745,3.136c1.906.855,3.72,1.913,5.576,2.878Z"/><path id="Контур_139" data-name="Контур 139" d="M932.093,2430.082c.169.016.339.046.509.046,2.062,0,4.125.012,6.187,0a2.184,2.184,0,0,1,2.346,2.15c.016.241.028.482.028.724,0,9.157,0,18.314,0,26.853-.456-3.7-1-8.013-1.518-12.331-.462-3.825-.9-7.654-1.354-11.48-.121-1.022-.276-2.04-.371-3.064-.043-.466-.256-.579-.68-.576-2.218.016-4.436,0-6.654.026-.533.007-.746-.146-.881-.688a55.387,55.387,0,0,0-4.9-13.63,31.039,31.039,0,0,0-6.952-8.868c-1.947-1.65-2.661-1.651-4.63-.005a33.614,33.614,0,0,0-10.586,15.5c-.408,1.234-.821,2.467-1.284,3.691a11.933,11.933,0,0,1,.246-5.828,30.413,30.413,0,0,1,4.361-8.658,29.791,29.791,0,0,1,7.546-8.1c2.3-1.6,1.585-1.5,3.82-.151a27.074,27.074,0,0,1,12.182,15.082c.816,2.471,1.555,4.967,2.293,7.463A13.752,13.752,0,0,1,932.093,2430.082Z"/><path id="Контур_140" data-name="Контур 140" d="M765.9,2446.087c.031-.613.1-1.228.085-1.84a.956.956,0,0,1,.681-1,10.94,10.94,0,0,1,5.946-.551c.5.091.733.325.651.914a39.816,39.816,0,0,0-.537,9.311,16.306,16.306,0,0,0,.856,4.027c1.61,4.379,7.023,3.907,9.092,1.42a10.392,10.392,0,0,0,2.175-5.487,22.683,22.683,0,0,0-.353-7.916c-.128-.578.08-.783.623-.741a8.548,8.548,0,0,1,3.763,1.061,1.162,1.162,0,0,1,.536.853c-.344,4.079-.936,8.111-2.8,11.828a9.152,9.152,0,0,1-14.734,3.112,16.441,16.441,0,0,1-5.04-8.69c-.521-2.049-.746-4.174-1.1-6.264Z"/><path id="Контур_141" data-name="Контур 141" d="M877.968,2466.745a9.8,9.8,0,0,1-6.547-2.14c-.914-.775-.993-1.209-.418-2.27a6.189,6.189,0,0,1,.7-1.029,1.543,1.543,0,0,1,2.164-.6,16.746,16.746,0,0,0,6.718,1.021,7.548,7.548,0,0,0,5.949-3.283c.628-.908.545-1.4-.523-1.726-1.586-.489-3.215-.849-4.839-1.2-1.435-.31-2.9-.467-4.327-.819a7.862,7.862,0,0,1-2.329-1.02,2.813,2.813,0,0,1-1-3.912,6,6,0,0,1,2.223-2.377,11.779,11.779,0,0,1,7.775-1.863c.908.1,1.156.375,1.222,1.3.006.087.009.175.011.263.048,1.79-.1,1.919-1.844,1.966-1.336.036-2.67.155-4,.25a1.512,1.512,0,0,0-.7.165c-.36.236-.86.5-.941.838-.059.25.4.718.727.941a4.41,4.41,0,0,0,1.386.583c1.507.382,3.048.642,4.534,1.091a18.225,18.225,0,0,1,3.761,1.5,3.822,3.822,0,0,1,1.841,4.637c-.829,3.272-3.065,5.282-6.041,6.583A13.235,13.235,0,0,1,877.968,2466.745Z"/><path id="Контур_142" data-name="Контур 142" d="M803.7,2451.405a3.9,3.9,0,0,0-.691-.086c-2.629.144-5.256.3-7.884.453-.154.009-.307.025-.459.042-.542.061-.741-.18-.454-.64a27.3,27.3,0,0,1,1.869-2.757,3.229,3.229,0,0,1,2.428-1.022,18.717,18.717,0,0,1,8.212,1.135c.305.122.605.26.9.411,1.2.626,1.377,1.6.3,2.4-1.718,1.286-3.511,2.474-5.3,3.667-1.4.939-2.847,1.817-4.264,2.737a6.053,6.053,0,0,0-.7.656,3.028,3.028,0,0,0,.777.258c3.541-.016,7.086-.036,10.334-1.763q.988-.525,1.945-1.1c.333-.2.513-.135.649.218a6.051,6.051,0,0,1,.339,3.738,1.887,1.887,0,0,1-1.382,1.441,26.844,26.844,0,0,1-8.386,1.119c-3.749-.09-7.493-.393-11.237-.636-1.009-.065-1.3-.658-.7-1.464a5.285,5.285,0,0,1,1.56-1.463c2.645-1.472,5.355-2.825,8-4.3,1.3-.724,2.509-1.61,3.753-2.432a3.626,3.626,0,0,0,.456-.421Z"/><path id="Контур_143" data-name="Контур 143" d="M925.727,2434.06c-.9.379-1.78.79-2.69,1.133a27.854,27.854,0,0,1-11.809,1.843,48.171,48.171,0,0,1-9.4-1.9c-3.72-1.017-7.424-2.108-11.181-2.969a23.622,23.622,0,0,0-5.808-.577c-5.111.126-10.218.441-15.326.686a15.969,15.969,0,0,1-2.138.032c.974-.357,1.942-.734,2.924-1.067a47.563,47.563,0,0,1,17.3-2.859,43.75,43.75,0,0,1,10.768,2.027c2.73.815,5.45,1.662,8.177,2.488a28.555,28.555,0,0,0,8.5,1.262c3.379-.025,6.758-.148,10.136-.228.168,0,.336,0,.5,0Z"/><path id="Контур_144" data-name="Контур 144" d="M935.739,2450.217a24.256,24.256,0,0,1-1.048,8.184,9.363,9.363,0,0,1-1.03,2.12,3.741,3.741,0,0,1-4.783,1.486,7.509,7.509,0,0,1-3.188-2.478c-.912-1.15-1.721-2.383-2.59-3.567a3.477,3.477,0,0,0-.561-.5,2.1,2.1,0,0,0-.36.646c-.232,1.694-.466,3.389-.62,5.09-.059.646-.217,1.046-.917,1.1a1.389,1.389,0,0,1-1.54-.951,1.69,1.69,0,0,1-.058-.389,34.177,34.177,0,0,1,.926-9.8,8.682,8.682,0,0,1,.747-1.815,1.149,1.149,0,0,1,1.5-.578,5.038,5.038,0,0,1,2.344,1.637c.777.893,1.475,1.856,2.239,2.762.863,1.021,1.751,2.021,2.654,3.007a3.983,3.983,0,0,0,.843.626c.772.485,1.043.4,1.409-.42a24.227,24.227,0,0,0,2.264-9.2,6.456,6.456,0,0,1,.069-.721c.067-.475.288-.892.795-.906.552-.014.7.48.759.919a16.671,16.671,0,0,1,.137,1.773C935.757,2448.9,935.739,2449.558,935.739,2450.217Z"/><path id="Контур_145" data-name="Контур 145" d="M823.929,2453.294c.751.25,1.368.4,1.942.658a25.314,25.314,0,0,1,3.487,1.67c2.15,1.377,2.088,3.075-.073,4.46a14.185,14.185,0,0,1-5.239,1.853,23.613,23.613,0,0,1-8.32.032c-.653-.114-.977-.361-1.052-1.068-.421-3.971-.886-7.937-1.333-11.906a5.557,5.557,0,0,1-.028-.592c0-.786.215-1.108.993-1.053,2.142.151,4.286.33,6.413.62a23.146,23.146,0,0,1,3.769.89c1.572.493,1.823,1.375.867,2.739-.275.393-.625.733-.939,1.1C824.28,2452.857,824.151,2453.022,823.929,2453.294Zm-2.047,6.685c1.252-.24,2.543-.463,3.819-.751.279-.064.7-.348.71-.55a1.071,1.071,0,0,0-.488-.824,39.641,39.641,0,0,0-3.776-1.808c-1.136-.452-2.354-.694-3.513-1.1-1.029-.357-1.122-.99-.234-1.638a23.432,23.432,0,0,1,2.036-1.2c.549-.32,1.118-.611,1.638-.972.421-.292.413-.658-.048-.936a4.177,4.177,0,0,0-.769-.368,9.2,9.2,0,0,0-4.486-.3c-.873.132-.955.248-.816,1.125.411,2.6.843,5.2,1.248,7.8a.844.844,0,0,0,.721.813C819.214,2459.506,820.506,2459.733,821.882,2459.979Z"/><path id="Контур_146" data-name="Контур 146" d="M849.318,2457.094c-.034.52-.087.881-.076,1.24.032,1.052.059,2.106.151,3.154a.55.55,0,0,1-.491.694c-.192.043-.389.068-.585.092-1.233.15-1.428-.079-1.408-1.3.072-4.237.11-8.475.152-12.712.009-.937.164-1.1,1.113-1.023a3.782,3.782,0,0,1,.517.092c1.921.426,2.054.633,1.671,2.545-.163.817-.318,1.636-.457,2.458a2.251,2.251,0,0,0,.044.556,1.638,1.638,0,0,0,.547-.059,22.807,22.807,0,0,0,7.122-4.887,1.06,1.06,0,0,1,1.18-.349c.857.249,1,.7.415,1.359a41.583,41.583,0,0,1-6.414,5.651c-.944.714-.962.923-.078,1.7a14.7,14.7,0,0,0,8.377,3.46c.291.032.751.181.8.366a1.415,1.415,0,0,1-.154,1.081,2.982,2.982,0,0,1-3.515.928,20.452,20.452,0,0,1-4.094-1.739c-1.443-.82-2.751-1.877-4.119-2.83C849.831,2457.44,849.642,2457.314,849.318,2457.094Z"/><path id="Контур_147" data-name="Контур 147" d="M843.8,2457.794a18.345,18.345,0,0,1,.335,2.052c.107,2.133.039,2.189-2.059,2.417a8.878,8.878,0,0,1-9.916-7.871,9.039,9.039,0,0,1,6.995-10.278.908.908,0,0,1,1.056.295,9.243,9.243,0,0,1,1.8,4.181c.085.484-.137.706-.621.8a10.26,10.26,0,0,0-4.353,1.754,4.432,4.432,0,0,0-2,3.256,4.381,4.381,0,0,0,3.7,4.568,6.523,6.523,0,0,0,4.2-.725C843.17,2458.126,843.4,2458,843.8,2457.794Z"/><path id="Контур_148" data-name="Контур 148" d="M909.192,2447.312a3.652,3.652,0,0,1,2.964,1.37,15.241,15.241,0,0,1,2.2,3.55c.933,2.4,1.611,4.906,2.393,7.368.066.208.1.426.177.632.156.443.285.862-.338,1.055a1.006,1.006,0,0,1-1.394-.555c-.739-1.874-1.4-3.787-2.249-5.608a22.827,22.827,0,0,0-2.118-3.314c-.411-.585-.669-.539-.991.1-1.644,3.245-3.287,6.49-4.9,9.752a.883.883,0,0,1-.953.61,4.943,4.943,0,0,1-1.031-.178c-1.377-.435-1.7-.969-1.159-2.269,1.225-2.952,2.475-5.9,3.824-8.792a16.846,16.846,0,0,1,1.951-2.875A1.89,1.89,0,0,1,909.192,2447.312Z"/><path id="Контур_149" data-name="Контур 149" d="M840.835,2433.627a8.665,8.665,0,0,0-2.027-5.783,20.625,20.625,0,0,0-8-5.953,14.4,14.4,0,0,0-5.189-1.338,11.1,11.1,0,0,0-6.636,1.6c.132-.15.256-.308.4-.449a13.556,13.556,0,0,1,8.07-4.194,11.107,11.107,0,0,1,5.665.825,13.967,13.967,0,0,1,7.14,5.862A10.844,10.844,0,0,1,840.835,2433.627Z"/><path id="Контур_150" data-name="Контур 150" d="M894.478,2456.634c0-1.316.009-2.633,0-3.949-.01-1.038-.022-1.006-1.026-1.015-2.017-.019-4.034-.09-6.051-.109-.552-.005-.7-.263-.625-.738a8.876,8.876,0,0,1,.17-.9c.456-1.76.662-1.927,2.453-1.9a59.519,59.519,0,0,0,11.412-.659.931.931,0,0,1,1.148.614c.052.121.112.238.159.361.614,1.593.473,1.885-1.169,2.235-1.221.26-2.451.477-3.68.7-.8.146-.965.275-.866,1.079.327,2.673.7,5.34,1.047,8.01.075.576.3,1.224-.335,1.616a2.462,2.462,0,0,1-2.215.145.782.782,0,0,1-.37-.559,15.553,15.553,0,0,1-.1-1.768c-.013-1.052,0-2.1,0-3.157Z"/><path id="Контур_151" data-name="Контур 151" d="M869.1,2459.555c0,.68-.011,1.36.005,2.04.009.372-.134.636-.509.6-1.238-.1-2.474-.228-3.706-.386-.477-.062-.587-.426-.553-.885q.3-4.068.573-8.138c.1-1.488.17-2.978.256-4.467.057-.992.422-1.215,1.3-.776a2.447,2.447,0,0,1,1.414,1.77A56.515,56.515,0,0,1,869.1,2459.555Z"/><path id="Контур_152" data-name="Контур 152" d="M838.479,2455.792c-1.251-.113-1.648-.407-1.541-1.362a1.322,1.322,0,0,1,.491-.849,8.371,8.371,0,0,1,4.173-1.443c.478-.035.782.147.855.607a5.947,5.947,0,0,1,.114,1.558.973.973,0,0,1-.6.648C840.82,2455.274,839.646,2455.519,838.479,2455.792Z"/><path id="Контур_153" data-name="Контур 153" d="M910.6,2457.347c1.134.129,1.5.374,1.693,1.231a1.6,1.6,0,0,1-1,1.961,9.456,9.456,0,0,1-1.471.547c-.967.258-1.568,0-1.859-.732a1.806,1.806,0,0,1,.673-2.362A14.557,14.557,0,0,1,910.6,2457.347Z"/></g></svg>