<svg xmlns="http://www.w3.org/2000/svg" width="167.634" height="48.058" viewBox="0 0 167.634 48.058"><g id="Сгруппировать_90" data-name="Сгруппировать 90" transform="translate(-519.917 -2411.678)"><g id="Сгруппировать_89" data-name="Сгруппировать 89" fill="#fff"><path id="Контур_123" data-name="Контур 123" d="M587.458,2425.424a5.561,5.561,0,0,0-2.309-.337h-4.4v5.6H584.9a5.872,5.872,0,0,0,2.588-.43,2.616,2.616,0,0,0,1.479-2.526,2.45,2.45,0,0,0-1.512-2.312m-1.075-8.409a4.359,4.359,0,0,0-1.911-.338h-3.726v5.3h3.511a4.48,4.48,0,0,0,2.278-.465,2.619,2.619,0,0,0-.152-4.5m-9.119,16.819v-20.3h7.453a8.022,8.022,0,0,1,3.512.646,5.071,5.071,0,0,1,2.989,4.588,4.589,4.589,0,0,1-2.436,4.253v.062a4.455,4.455,0,0,1,3.758,4.619,5.817,5.817,0,0,1-4.5,5.7,12.993,12.993,0,0,1-3.882.431Z"/><path id="Прямоугольник_17" data-name="Прямоугольник 17" transform="translate(612.851 2413.536)" d="M0 0H3.48V20.298H0z"/><path id="Прямоугольник_18" data-name="Прямоугольник 18" transform="translate(638.122 2413.536)" d="M0 0H3.476V20.298H0z"/><path id="Контур_124" data-name="Контур 124" d="M652.84,2413.351a13.892,13.892,0,0,1,5.635,1.14l-.059,3.326a12.482,12.482,0,0,0-5.668-1.418c-1.907,0-3.542.588-3.542,2.19,0,4.157,10.444,2.494,10.444,9.36,0,3.79-3.205,6.189-7.858,6.189a12.8,12.8,0,0,1-6.866-1.813l1.445-2.834a10.675,10.675,0,0,0,5.546,1.6c2.1,0,4.036-.8,4.036-2.649,0-4.347-10.349-2.435-10.349-9.364,0-3.7,2.955-5.729,7.236-5.729"/><path id="Контур_125" data-name="Контур 125" d="M676.126,2413.536h3.48v20.3h-3.48v-8.747h-9.858v8.747h-3.48v-20.3h3.48v8.317h9.858Z"/><path id="Контур_126" data-name="Контур 126" d="M584.949,2437.4a13.136,13.136,0,0,1,5.638,1.2l-1.05,2.958a9.308,9.308,0,0,0-4.216-1.014c-3.852,0-6.252,3.262-6.252,7.236,0,4.006,2.246,7.268,6.252,7.268a9.214,9.214,0,0,0,4.216-1.018l1.05,2.961a13.121,13.121,0,0,1-5.638,1.2c-6.07,0-9.547-4.249-9.547-10.347,0-5.7,3.477-10.443,9.547-10.443"/><path id="Контур_127" data-name="Контур 127" d="M661.1,2437.4a13.1,13.1,0,0,1,5.634,1.2l-1.045,2.958a9.322,9.322,0,0,0-4.222-1.014c-3.851,0-6.252,3.262-6.252,7.236,0,4.006,2.249,7.268,6.252,7.268a9.228,9.228,0,0,0,4.222-1.018l1.045,2.961a13.084,13.084,0,0,1-5.634,1.2c-6.071,0-9.551-4.249-9.551-10.347,0-5.7,3.48-10.443,9.551-10.443"/><path id="Контур_128" data-name="Контур 128" d="M606.813,2447.778c0-4.433-2.522-7.267-5.943-7.267s-5.946,2.834-5.946,7.3c0,4.439,2.528,7.269,5.946,7.269s5.943-2.83,5.943-7.3m3.668-.064c0,6.1-3.883,10.474-9.611,10.474-5.788,0-9.608-4.219-9.608-10.315s3.879-10.474,9.608-10.474c5.794,0,9.611,4.222,9.611,10.315"/><path id="Контур_129" data-name="Контур 129" d="M612.834,2450.241v-12.656h3.48v12.781c0,3.385,1.818,4.651,4.712,4.651,2.958,0,4.715-1.266,4.715-4.651v-12.781h3.48v12.656c0,5.516-3.145,7.947-8.253,7.947-5.023,0-8.134-2.431-8.134-7.947"/><path id="Контур_130" data-name="Контур 130" d="M635.762,2443.1H635.7c.062.674.092,1.753.092,2.71v12.07h-3.48v-20.294h3.759l9.419,13.828h.065c-.065-.678-.092-1.757-.092-2.714v-11.114h3.477v20.294h-3.077Z"/><path id="Прямоугольник_19" data-name="Прямоугольник 19" transform="translate(669.471 2437.585)" d="M0 0H3.474V20.298H0z"/><path id="Контур_131" data-name="Контур 131" d="M679.606,2454.739h7.945v3.145H676.126v-20.3h3.48Z"/><path id="Контур_132" data-name="Контур 132" d="M618.985,2413.539v3.173h6.5v17.122h3.48v-17.122h6.5v-3.173Z"/><path id="Контур_133" data-name="Контур 133" d="M602,2416.68H598.4v6.162h3.449c2.5,0,3.666-1.295,3.666-3.143,0-1.663-1.077-3.019-3.51-3.019m4.585,17.154c-2.954-6.127-3.725-7.853-4.957-7.853H598.4v7.853h-3.478v-20.293h6.865c5.234,0,7.238,2.772,7.238,5.85a5.176,5.176,0,0,1-3.757,5.2v.033c.922.526,1.906,2.435,5.295,9.209Z"/><path id="Контур_134" data-name="Контур 134" d="M543.134,2423.287a11.608,11.608,0,1,1-11.609-11.609,11.61,11.61,0,0,1,11.609,11.609"/><path id="Контур_135" data-name="Контур 135" d="M567.976,2423.287a11.609,11.609,0,1,1-11.609-11.609,11.61,11.61,0,0,1,11.609,11.609"/><path id="Контур_136" data-name="Контур 136" d="M543.134,2448.129a11.608,11.608,0,1,1-11.609-11.608,11.607,11.607,0,0,1,11.609,11.608"/><path id="Контур_137" data-name="Контур 137" d="M567.976,2448.129a11.609,11.609,0,1,1-11.609-11.608,11.607,11.607,0,0,1,11.609,11.608"/></g></g></svg>