<svg xmlns="http://www.w3.org/2000/svg" width="182.013" height="61.078" viewBox="0 0 182.013 61.078"><g id="Сгруппировать_82" data-name="Сгруппировать 82" transform="translate(-863.936 -3153.058)"><g id="Сгруппировать_81" data-name="Сгруппировать 81"><path id="Контур_91" data-name="Контур 91" d="M873.764,3189.082l-4.032.112v24.029l-5.8.618v-60.783l5.8.516v24.115l4.176.041,6.624-23.2,6.155.547-8.243,27.248,8.5,29.061-6.624.705Z"/><path id="Контур_92" data-name="Контур 92" d="M892.5,3208.628a17.658,17.658,0,0,1-3.8-7.494,42.894,42.894,0,0,1-1.368-11.386,43.885,43.885,0,0,1,1.368-11.473,19.025,19.025,0,0,1,3.8-7.732,6.791,6.791,0,0,1,5.49-2.548,7.615,7.615,0,0,1,5.472,2.942,19.488,19.488,0,0,1,3.78,7.5,38.155,38.155,0,0,1,1.367,10.646,39.064,39.064,0,0,1-1.367,10.731,20.994,20.994,0,0,1-3.78,7.734,8.206,8.206,0,0,1-5.472,3.289A6.373,6.373,0,0,1,892.5,3208.628Zm9.036-11.044a21.029,21.029,0,0,0,1.386-8.327,20.381,20.381,0,0,0-1.386-8.239q-1.388-3.1-3.546-3.125c-1.44-.015-2.629,1.025-3.564,3.133a21.543,21.543,0,0,0-1.4,8.543,20.868,20.868,0,0,0,1.4,8.454q1.4,3.074,3.564,2.911C899.432,3200.829,900.613,3199.708,901.538,3197.584Z"/><path id="Контур_93" data-name="Контур 93" d="M912.428,3169.244l5.58.244v15.063l8.424-.126v-14.569l5.616.245v36.482l-5.616.6v-13.944l-8.424.425v14.417l-5.58.594Z"/><path id="Контур_94" data-name="Контур 94" d="M953.646,3165.052l-6.551-.464v26.08l-5.58.244v-26.719l-6.552-.464v-8.574l18.683,1.99Z"/><path id="Контур_95" data-name="Контур 95" d="M971.034,3184.524c1.608,2.21,2.412,5.552,2.412,10.053v17.267l-5.256.813v-3.868c-1.056,3.046-3.024,4.8-5.9,5.257a5.5,5.5,0,0,1-3.87-.662,6.448,6.448,0,0,1-2.5-3.17,13.505,13.505,0,0,1-.863-5.041,12.317,12.317,0,0,1,2.033-7.4,7.991,7.991,0,0,1,6.282-3.031l4.464-.3a7.607,7.607,0,0,0-1.115-4.489,3.673,3.673,0,0,0-3.349-1.476,6.494,6.494,0,0,0-3.042.921,8.247,8.247,0,0,0-2.538,2.315l-2.015-6.567a10.912,10.912,0,0,1,3.8-2.962,10.731,10.731,0,0,1,4.554-1.033A7.976,7.976,0,0,1,971.034,3184.524Zm-4.788,21.7a7.049,7.049,0,0,0,1.584-3.343V3199.7l-3.851.353q-3.456.318-3.457,4.088a3.982,3.982,0,0,0,.846,2.741,2.5,2.5,0,0,0,2.322.745A4.117,4.117,0,0,0,966.246,3206.228Z"/><path id="Контур_96" data-name="Контур 96" d="M986.838,3197.856l-2.916.266V3209l-5.616.832V3180.3l5.616.012v11.144l3.023-.17,5.256-10.957,5.977.012-6.769,13.2,7.237,13.273-6.625.982Z"/><path id="Контур_97" data-name="Контур 97" d="M1017.474,3179.458l-6.552-.052v18.771l-5.58.595v-19.41l-6.552-.052v-6.293l18.684.816Z"/><path id="Контур_98" data-name="Контур 98" d="M1036.338,3183.129a6.334,6.334,0,0,1,1.943,5,7.231,7.231,0,0,1-2.195,5.506,10.245,10.245,0,0,1-6.229,2.565l-9.431.963v-23.2l5.58.244v7.149l4.607-.02A8.351,8.351,0,0,1,1036.338,3183.129Zm-4.5,7.667a3.284,3.284,0,0,0,.863-2.443,2.7,2.7,0,0,0-.846-2.231,3.834,3.834,0,0,0-2.5-.676l-3.348.066V3192l3.348-.254A3.643,3.643,0,0,0,1031.838,3190.8Zm8.531-15.963,5.58.244v19.367l-5.58.595Z"/></g></g></svg>