<svg xmlns="http://www.w3.org/2000/svg" width="54.877" height="109" viewBox="0 0 54.877 109"><g id="Сгруппировать_80" data-name="Сгруппировать 80" transform="translate(-33.429 -3791.128)"><g id="Сгруппировать_79" data-name="Сгруппировать 79"><g id="Сгруппировать_73" data-name="Сгруппировать 73" fill="#fff"><path id="Контур_87" data-name="Контур 87" d="M54.184,3834.389a14.536,14.536,0,0,0,1.958-.487v-1.185A6.642,6.642,0,0,1,54.184,3834.389Zm0-11.752a6.646,6.646,0,0,1,1.958,1.672v-1.185A14.537,14.537,0,0,0,54.184,3822.637Z"/><path id="Контур_88" data-name="Контур 88" d="M50.868,3791.128v26.023c.248-.009.5-.015.747-.015a19.869,19.869,0,0,1,4.527.521,20.179,20.179,0,0,1,12.9,9.537l.763,1.319-.763,1.318a20.179,20.179,0,0,1-12.9,9.537,19.815,19.815,0,0,1-4.527.522c-.248,0-.5-.007-.747-.016v60.254H88.306v-109Zm32.163,103.725H70.826v-15.77h9.205v-5.274H70.826v-14.771l-4.691-6.875,4.691-6.068V3796.4H83.031Z"/></g><g id="Сгруппировать_74" data-name="Сгруппировать 74"><path id="Контур_89" data-name="Контур 89" d="M63.613,3828.513a14.9,14.9,0,0,1-7.471,5.389,14.536,14.536,0,0,1-1.958.487,6.642,6.642,0,0,0,1.958-1.672,6.732,6.732,0,0,0,0-8.408,6.646,6.646,0,0,0-1.958-1.672,14.537,14.537,0,0,1,1.958.487A14.889,14.889,0,0,1,63.613,3828.513Z" fill="#fff"/></g><g id="Сгруппировать_75" data-name="Сгруппировать 75"><circle id="Эллипс_1" data-name="Эллипс 1" cx="3.287" cy="3.287" r="3.287" transform="translate(73.643 3807.566)" fill="#fff"/></g><g id="Сгруппировать_78" data-name="Сгруппировать 78"><g id="Сгруппировать_77" data-name="Сгруппировать 77"><g id="Сгруппировать_76" data-name="Сгруппировать 76"><path id="Контур_90" data-name="Контур 90" d="M34.192,3827.191l-.763,1.322.763,1.321a20.2,20.2,0,0,0,16.676,10.04v-22.723A20.2,20.2,0,0,0,34.192,3827.191Zm12.4,6.54a5.439,5.439,0,1,1,0-10.437,6.749,6.749,0,0,0,0,10.437Z" fill="#fff"/></g></g></g></g></g></svg>