<svg xmlns="http://www.w3.org/2000/svg" width="784.76" height="291.193" viewBox="0 0 784.76 291.193"><g id="Сгруппировать_72" data-name="Сгруппировать 72" transform="translate(-1243.176 -3714.893)"><g id="Сгруппировать_68" data-name="Сгруппировать 68"><path id="Контур_83" data-name="Контур 83" d="M1244,4002.767c14.1.83,31.526-9.54,41.482-18.251l63.465-238.1-30.7-9.956.83-2.49c19.912-2.489,58.486-8.294,72.175-19.08H1414.9c24.058,0,100.382.83,143.107,2.489,22.815,1.243,50.192,1.243,60.562,6.638v2.9s-19.5,45.215-35.674,51.02l-146.426-56.827-34.012,126.516a204.5,204.5,0,0,0,26.961,1.659c32.353,0,58.073-7.051,80.472-14.1,1.659-.413,4.976,2.076,6.221,1.66,2.073,8.713-12.859,61.8-24.888,56.413l-90.426-40.236-41.065,153.064h-116.56Z" fill="#fff"/></g><g id="Сгруппировать_69" data-name="Сгруппировать 69"><path id="Контур_84" data-name="Контур 84" d="M1680.335,3826.316c30.56-12.021,53.4.167,55.328,26.479,2.112,35.956-33.14,73.77-83.838,93.712-79.524,31.279-131.962,19.281-135.921-31.567-3.85-51.585,41.182-101.225,118.97-131.822,21.53-8.469,82.183-16.362,75.584,2.544-1.912,8.388-7.735,22.131-17.458,25.955a19.256,19.256,0,0,1-5.911,1.285l-34.726,29.969A113.856,113.856,0,0,1,1680.335,3826.316ZM1655.5,3941.588c44.45-17.483,78.541-55.187,76.337-87.29-1.914-24.235-25.888-33.2-57.489-20.768-13.2,5.191-27.412,13.905-42.41,26.746l-48.107,41.828C1589.42,3936.694,1615.915,3957.16,1655.5,3941.588Zm-72.3-46.178c.009,1.037-.1,1.775-.095,2.814l99.1-85.486c-7.219-19.372-13.056-40.328-46.392-27.215C1587.9,3804.372,1581.152,3867.759,1583.2,3895.41Z" fill="#fff"/></g><g id="Сгруппировать_70" data-name="Сгруппировать 70"><path id="Контур_85" data-name="Контур 85" d="M1809.511,3955.958c-28.788,31.385-87.975,3.995-115.868-18.96-39.194-32.255-69.321-84.88-68.146-112.934l3.031-2.243s38.6,2.747,51.79,14.786c0,0-5.354,71.992-3.463,74.734,13.211,15.61,26.173,28.642,38.219,35.6,27.206,15.876,37.772,10.951,46.451,3.285,37.572-31.261-115.769-145.018-59.4-213.517,22.376-27.19,72.812-22.991,126.835,21.468,36.368,29.93,53.408,68.235,55.508,76.476l-2.325,2.825s-41.674,2.422-57.186-6.79c0,0-.316-70.142-2.787-72.176-26.71-20.8-54.5-35.967-71.35-15.488C1723.219,3776.564,1871.388,3887.25,1809.511,3955.958Z" fill="#fff"/></g><g id="Сгруппировать_71" data-name="Сгруппировать 71"><path id="Контур_86" data-name="Контур 86" d="M2010.946,3879.139c25.916,23.037,24.638,62.857-21.015,83.635-38.349,17.453-98.258,20.47-116.875-20.435l-52.029-114.318-38.715,17.62-1.662-3.65,1.828-.832c73.508-36.1,35.326-87.06,35.326-87.06,6.233-18.271,39.67-33.928,39.67-33.928l5.046-.533c6.512,3.649,27.793,60.1-52.285,108.888l132.213-60.173,1.661,3.65-52.958,24.1,55.42,119.829c13.8,30.314,23.2,52.924,53.284,35.709,30.28-17.75,31.726-47.507,7.438-70.842Z" fill="#fff"/></g></g></svg>