<svg xmlns="http://www.w3.org/2000/svg" width="182.013" height="60.783" viewBox="0 0 182.013 60.783"><g id="Сгруппировать_81" data-name="Сгруппировать 81" transform="translate(-863.936 -3042.276)"><g id="Сгруппировать_80" data-name="Сгруппировать 80"><path id="Контур_103" data-name="Контур 103" d="M873.764,3078.212l-4.032.148v24.03l-5.8.669v-60.783l5.8.464v24.115l4.176,0,6.624-23.255,6.155.492-8.243,27.321,8.5,28.985-6.624.765Z"/><path id="Контур_104" data-name="Контур 104" d="M892.5,3097.59a17.468,17.468,0,0,1-3.8-7.46,42.746,42.746,0,0,1-1.368-11.374,44.02,44.02,0,0,1,1.368-11.484,19.228,19.228,0,0,1,3.8-7.767,6.858,6.858,0,0,1,5.49-2.6,7.537,7.537,0,0,1,5.472,2.893,19.288,19.288,0,0,1,3.78,7.462,38.028,38.028,0,0,1,1.367,10.634,39.207,39.207,0,0,1-1.367,10.744,21.226,21.226,0,0,1-3.78,7.767,8.3,8.3,0,0,1-5.472,3.338A6.32,6.32,0,0,1,892.5,3097.59Zm9.036-11.125a21.115,21.115,0,0,0,1.386-8.338,20.287,20.287,0,0,0-1.386-8.227q-1.388-3.087-3.546-3.094c-1.44,0-2.629,1.049-3.564,3.166a21.628,21.628,0,0,0-1.4,8.554,20.774,20.774,0,0,0,1.4,8.442q1.4,3.062,3.564,2.88C899.432,3089.73,900.613,3088.6,901.538,3086.465Z"/><path id="Контур_105" data-name="Контур 105" d="M912.428,3058.028l5.58.194v15.063l8.424-.2v-14.57l5.616.2v36.481l-5.616.649V3081.9l-8.424.5v14.417l-5.58.644Z"/><path id="Контур_106" data-name="Контур 106" d="M953.646,3067.367l-6.551.006v26.08l-5.58.644v-26.718l-6.552.006v-8.574l18.683.649Z"/><path id="Контур_107" data-name="Контур 107" d="M971.034,3063c1.608,2.272,2.412,5.646,2.412,10.147v17.267l-5.256.607v-3.867c-1.056,3-3.024,4.686-5.9,5.026a5.617,5.617,0,0,1-3.87-.814,6.813,6.813,0,0,1-2.5-3.268,13.771,13.771,0,0,1-.863-5.075,11.954,11.954,0,0,1,2.033-7.323c1.356-1.785,3.45-2.708,6.282-2.785l4.464-.122a7.825,7.825,0,0,0-1.115-4.533,3.829,3.829,0,0,0-3.349-1.606,6.286,6.286,0,0,0-3.042.8,7.781,7.781,0,0,0-2.538,2.215l-2.015-6.645a10.327,10.327,0,0,1,3.8-2.814,10.474,10.474,0,0,1,4.554-.854A8.329,8.329,0,0,1,971.034,3063Zm-4.788,21.516a6.743,6.743,0,0,0,1.584-3.281v-3.181l-3.851.2q-3.456.182-3.457,3.952a4.116,4.116,0,0,0,.846,2.775,2.592,2.592,0,0,0,2.322.836A3.934,3.934,0,0,0,966.246,3084.511Z"/><path id="Контур_108" data-name="Контур 108" d="M986.838,3078.15l-2.916.171V3089.2l-5.616.648v-29.531l5.616.2v11.144l3.023-.071L992.2,3060.8l5.977.208-6.769,12.981,7.237,13.51-6.625.765Z"/><path id="Контур_109" data-name="Контур 109" d="M1017.474,3067.3l-6.552.007v18.771l-5.58.644v-19.41l-6.552.007v-6.293l18.684.649Z"/><path id="Контур_110" data-name="Контур 110" d="M1036.338,3070.8a6.279,6.279,0,0,1,1.943,4.983,7.294,7.294,0,0,1-2.195,5.526,10.337,10.337,0,0,1-6.229,2.621l-9.431,1.048v-23.2l5.58.194v7.15l4.607-.062A8.288,8.288,0,0,1,1036.338,3070.8Zm-4.5,7.707a3.311,3.311,0,0,0,.863-2.45,2.679,2.679,0,0,0-.846-2.223,3.808,3.808,0,0,0-2.5-.655l-3.348.1v6.486l3.348-.283A3.678,3.678,0,0,0,1031.838,3078.511Zm8.531-16.039,5.58.194v19.367l-5.58.645Z"/></g></g></svg>