<svg xmlns="http://www.w3.org/2000/svg" width="109.276" height="109.277" viewBox="0 0 109.276 109.277"><g id="Сгруппировать_83" data-name="Сгруппировать 83" transform="translate(-772.862 -3256.953)"><path id="Контур_99" data-name="Контур 99" d="M849.584,3256.953H805.416a32.591,32.591,0,0,0-32.554,32.554v44.168a32.591,32.591,0,0,0,32.554,32.555h44.168a32.591,32.591,0,0,0,32.554-32.555v-44.168A32.591,32.591,0,0,0,849.584,3256.953Zm21.561,76.722a21.561,21.561,0,0,1-21.561,21.561H805.416a21.561,21.561,0,0,1-21.561-21.561v-44.168a21.561,21.561,0,0,1,21.561-21.561h44.168a21.561,21.561,0,0,1,21.561,21.561v44.168Z"/><path id="Контур_100" data-name="Контур 100" d="M827.5,3283.328a28.263,28.263,0,1,0,28.263,28.263A28.3,28.3,0,0,0,827.5,3283.328Zm0,45.533a17.27,17.27,0,1,1,17.27-17.27A17.27,17.27,0,0,1,827.5,3328.861Z"/><circle id="Эллипс_2" data-name="Эллипс 2" cx="6.772" cy="6.772" r="6.772" transform="translate(849.045 3276.768)"/></g></svg>