<svg xmlns="http://www.w3.org/2000/svg" width="306.986" height="39.062" viewBox="0 0 306.986 39.062"><g id="Сгруппировать_60" data-name="Сгруппировать 60" transform="translate(-93.085 -74)"><g id="Сгруппировать_54" data-name="Сгруппировать 54"><path id="Контур_62" data-name="Контур 62" d="M122.922,112.41V94.13l-8.738,18.28h-6.707L98.739,94.13v18.28H93.085V81.973h5.739l12.007,24.948,12.006-24.948h5.739V112.41Z"/><path id="Контур_63" data-name="Контур 63" d="M199.1,81.52c10.581.027,17.44,7.041,17.44,15.689s-6.85,15.653-17.42,15.689H150.127c-10.616,0-17.5-7.024-17.5-15.689s6.885-15.689,17.5-15.689Zm.031,26.022c7.832-.031,11.115-3.911,11.115-10.333S206.953,86.9,199.1,86.878H150.127c-7.9,0-11.208,3.886-11.208,10.331s3.31,10.333,11.208,10.333Z"/><path id="Контур_64" data-name="Контур 64" d="M246.367,103.369l4.737,3.017c-2.994,3.935-8.028,6.5-14.435,6.5-10.616,0-17.5-7.025-17.5-15.69s6.885-15.689,17.5-15.689c6.4,0,11.43,2.563,14.426,6.49l-4.737,3.018c-1.676-2.659-4.8-4.15-9.688-4.15-7.9,0-11.207,3.886-11.207,10.331s3.309,10.333,11.207,10.333C241.565,107.533,244.694,106.039,246.367,103.369Z"/><path id="Контур_65" data-name="Контур 65" d="M278.914,113.062h-1.089l-9.967-37.145h1.089Z"/></g><g id="Сгруппировать_59" data-name="Сгруппировать 59"><g id="Сгруппировать_55" data-name="Сгруппировать 55"><path id="Контур_66" data-name="Контур 66" d="M297.03,111.8c1.852.109,4.14-1.253,5.447-2.4l8.333-31.263-4.03-1.307.108-.327c2.615-.327,7.68-1.089,9.477-2.5h3.105c3.159,0,13.18.109,18.79.327,3,.163,6.591.163,7.952.871v.381s-2.559,5.937-4.684,6.7L322.3,74.817l-4.466,16.612a26.9,26.9,0,0,0,3.54.218,33.731,33.731,0,0,0,10.567-1.852c.217-.055.653.272.816.218.273,1.144-1.688,8.115-3.267,7.407l-11.874-5.283-5.392,20.1h-15.3Z"/></g><g id="Сгруппировать_56" data-name="Сгруппировать 56"><path id="Контур_67" data-name="Контур 67" d="M349.84,92.359c4.461-1.754,7.794.025,8.076,3.865.308,5.248-4.837,10.767-12.237,13.678-11.607,4.565-19.261,2.814-19.839-4.607-.561-7.53,6.011-14.775,17.365-19.241,3.142-1.236,12-2.388,11.032.372-.279,1.224-1.129,3.23-2.548,3.788a2.836,2.836,0,0,1-.863.188l-5.068,4.374A16.626,16.626,0,0,1,349.84,92.359Zm-3.624,16.825c6.488-2.552,11.463-8.055,11.142-12.741-.28-3.537-3.779-4.845-8.391-3.031a22.211,22.211,0,0,0-6.19,3.9l-7.022,6.1C336.571,108.47,340.438,111.457,346.216,109.184Zm-10.552-6.74c0,.151-.016.259-.014.411l14.464-12.477c-1.054-2.828-1.9-5.887-6.771-3.973C336.348,89.157,335.364,98.408,335.664,102.444Z"/></g><g id="Сгруппировать_57" data-name="Сгруппировать 57"><path id="Контур_68" data-name="Контур 68" d="M379.714,105.382c-.272,5.066-7.789,7.026-12.091,7.026-6.046,0-12.8-2.559-14.815-5.228l.109-.436s3.758-2.669,5.882-2.56c0,0,4.956,7.026,5.338,7.135a19.486,19.486,0,0,0,6.209.381c3.7-.6,4.3-1.851,4.52-3.213,1.09-5.719-21.622-4.575-21.622-15.142,0-4.194,4.956-7.625,13.289-7.625a21.931,21.931,0,0,1,10.893,2.832v.436s-3.649,3.377-5.773,3.7c0,0-5.338-6.427-5.719-6.427-4.03.109-7.734.817-7.734,3.976C358.2,95.415,380.2,94.38,379.714,105.382Z"/></g><g id="Сгруппировать_58" data-name="Сгруппировать 58"><path id="Контур_69" data-name="Контур 69" d="M399.438,103.084c1.907,4.3-.49,9.151-7.3,9.151-5.719,0-13.29-3-13.29-9.1V86.091h-5.773v-.544h.272c11.111-.327,9.259-8.769,9.259-8.769,1.8-1.907,6.809-1.961,6.809-1.961l.653.218c.6.817.055,8.987-12.581,10.512H397.2v.544h-7.9l.109,17.919c0,4.521-.109,7.843,4.575,7.408,4.738-.491,6.59-4.085,4.9-8.334Z"/></g></g></g></svg>