<svg xmlns="http://www.w3.org/2000/svg" width="376.001" height="100.544" viewBox="0 0 376.001 100.544"><g id="Сгруппировать_88" data-name="Сгруппировать 88" transform="translate(-798.248 -2614.38)" fill="#fff"><path id="Контур_110" data-name="Контур 110" d="M825.336,2694.414l-.042-46.451-8.76,38.536-3.062.1-8.76-38.433v47.22l-6.464.3V2614.38l5.7.512,11.142,50.1,10.971-48.108,5.7.513.042,76.716Z"/><path id="Контур_111" data-name="Контур 111" d="M860.8,2669.361l-17.308.053a20.911,20.911,0,0,0,2.212,8.436q1.743,3.063,4.337,2.994a4.574,4.574,0,0,0,3.168-1.393,12.7,12.7,0,0,0,2.573-4.2l3.529,9.328q-3.231,9.207-9.44,9.525-3.87.189-6.847-3.479-2.976-3.7-4.592-10.474a67.273,67.273,0,0,1-1.616-15.495,68.092,68.092,0,0,1,1.6-15.422q1.594-6.808,4.379-10.49,2.785-3.651,6.23-3.442,3.36.2,6.082,3.936a28.473,28.473,0,0,1,4.273,10.383A68.12,68.12,0,0,1,860.929,2665Q860.929,2665.309,860.8,2669.361Zm-15.522-18.453a23.874,23.874,0,0,0-1.871,8.743l11.269.165a24.113,24.113,0,0,0-1.871-8.623q-1.53-3.273-3.742-3.354Q846.811,2647.756,845.28,2650.908Z"/><path id="Контур_112" data-name="Контур 112" d="M891.462,2678.763v23.888l-6.166.431v-11.5l-16.074.758v11.861l-6.166.431V2679.39l.935-.02q2.125-.147,2.934-6.125a157.29,157.29,0,0,0,1.021-16.924l.3-19.049,19.944,1.161v40.4Zm-18.051-7.615a28.655,28.655,0,0,1-1.51,8.047l9.653-.213v-28.157l-7.485-.248-.127,6.989Q873.814,2665.876,873.411,2671.148Z"/><path id="Контур_113" data-name="Контур 113" d="M895.629,2633.7l6.592.384v30.654l11.141-30.006,6.081.354v49.723l-6.591.311v-29.99l-11.1,30.514-6.124.289Z"/><path id="Контур_114" data-name="Контур 114" d="M942.874,2670.977q2.848,5.343,2.849,15.8v26.794l-6.208.293v-5.93q-1.872,6.72-6.974,6.977a6,6,0,0,1-4.572-1.683,11.576,11.576,0,0,1-2.955-5.166,26.251,26.251,0,0,1-1.021-7.655q0-6.864,2.4-10.785a7.954,7.954,0,0,1,7.42-3.806l5.273.078a15.13,15.13,0,0,0-1.318-6.994,4.435,4.435,0,0,0-3.955-2.583,6.073,6.073,0,0,0-3.593,1.092,9.837,9.837,0,0,0-3,3.219l-2.381-10.019a12.661,12.661,0,0,1,4.486-4.134,10.039,10.039,0,0,1,5.379-1.217C938.253,2665.474,940.975,2667.387,942.874,2670.977Zm-5.656,32.725a10.818,10.818,0,0,0,1.871-4.873v-4.872l-4.55.014q-4.082.014-4.082,5.7a7.827,7.827,0,0,0,1,4.262,2.994,2.994,0,0,0,2.743,1.5A3.95,3.95,0,0,0,937.218,2703.7Z"/><path id="Контур_115" data-name="Контур 115" d="M974.258,2625.988v43.948l-6.635.313v-34.026l-9.525-.316V2670.7l-6.592.31v-46.345Z"/><path id="Контур_116" data-name="Контур 116" d="M997.688,2648.774q2.848,4.705,2.849,13.878v23.5l-6.208.293v-5.211q-1.872,5.916-6.975,6.172a6.449,6.449,0,0,1-4.571-1.457,9.936,9.936,0,0,1-2.955-4.543,20.61,20.61,0,0,1-1.021-6.754q0-6.058,2.4-9.518,2.4-3.424,7.42-3.344l5.273.077a11.944,11.944,0,0,0-1.318-6.151,4.523,4.523,0,0,0-3.955-2.287,6.636,6.636,0,0,0-3.593.947,9.164,9.164,0,0,0-3,2.827l-2.382-8.85a12.1,12.1,0,0,1,4.487-3.618,11.122,11.122,0,0,1,5.379-1.034A9.761,9.761,0,0,1,997.688,2648.774Zm-5.656,28.743a8.921,8.921,0,0,0,1.871-4.288v-4.281l-4.549.014q-4.083.014-4.083,5.024a6.238,6.238,0,0,0,1,3.753,3.1,3.1,0,0,0,2.742,1.311A4.117,4.117,0,0,0,992.032,2677.517Z"/><path id="Контур_117" data-name="Контур 117" d="M1025.6,2648.326a17.629,17.629,0,0,1,4.1,7.088,36.433,36.433,0,0,1,0,20.612,17.355,17.355,0,0,1-4.1,7.043,8.714,8.714,0,0,1-5.8,2.754c-2.921.143-5.217-1.344-6.89-4.481v18.6l-6.634.565V2645.3l6.337.368v4.6q2.466-5.053,7.187-4.763A8.834,8.834,0,0,1,1025.6,2648.326Zm-2.764,25.188a19.536,19.536,0,0,0,0-15.661q-1.638-2.978-4.189-3.07t-4.188,2.845a20.4,20.4,0,0,0,0,16.018q1.637,2.955,4.188,2.891T1022.841,2673.514Z"/><path id="Контур_118" data-name="Контур 118" d="M1054.2,2656.545l-7.739-.257v27.7l-6.591.311V2656.07l-7.74-.257v-9l22.07,1.284Z"/><path id="Контур_119" data-name="Контур 119" d="M1057.732,2648.3l6.591.383v13.45l9.951.17v-13.041l6.634.386v32.712l-6.634.313v-12.483l-9.951.078v12.875l-6.591.311Z"/><path id="Контур_120" data-name="Контур 120" d="M1109.357,2668.59l-17.307.054a7.819,7.819,0,0,0,2.211,4.59,5.84,5.84,0,0,0,4.338,1.582,6.972,6.972,0,0,0,3.168-.785,8.189,8.189,0,0,0,2.572-2.277l3.529,4.948a12.081,12.081,0,0,1-16.286,3.539,12.668,12.668,0,0,1-4.593-5.68,23.357,23.357,0,0,1-.021-17.02,12.916,12.916,0,0,1,4.38-5.671,9.641,9.641,0,0,1,6.229-1.714,10.922,10.922,0,0,1,6.081,2.28,13.655,13.655,0,0,1,4.275,5.639,20.363,20.363,0,0,1,1.551,8.2Q1109.484,2666.436,1109.357,2668.59Zm-15.522-10.033a8.312,8.312,0,0,0-1.871,4.752l11.269.165a8.448,8.448,0,0,0-1.871-4.656,5.008,5.008,0,0,0-3.742-1.87A4.648,4.648,0,0,0,1093.835,2658.557Z"/><path id="Контур_121" data-name="Контур 121" d="M1133.872,2654.065a12.679,12.679,0,0,1,4.1,5.031,18.267,18.267,0,0,1,0,14.443,12.472,12.472,0,0,1-4.1,4.986,10.717,10.717,0,0,1-5.8,2.022,7.636,7.636,0,0,1-6.889-3.1v13.282l-6.634.565V2651.6l6.337.369v3.283a7.575,7.575,0,0,1,7.186-3.279A10.834,10.834,0,0,1,1133.872,2654.065Zm-2.765,17.746a10.156,10.156,0,0,0,0-11.061,5.323,5.323,0,0,0-4.188-2.21,4.865,4.865,0,0,0-4.189,1.986,10.77,10.77,0,0,0,0,11.416,4.925,4.925,0,0,0,4.189,2.033A5.262,5.262,0,0,0,1131.107,2671.811Z"/><path id="Контур_122" data-name="Контур 122" d="M1162.9,2664.218a7.524,7.524,0,0,1,2.295,5.882,7.882,7.882,0,0,1-2.593,6.256,11.557,11.557,0,0,1-7.357,2.544l-11.141.479v-26.054l6.59.383v8.107l5.444.134Q1160.6,2662.1,1162.9,2664.218Zm-5.316,8.619a3.554,3.554,0,0,0,1.021-2.758,3.179,3.179,0,0,0-1-2.6,4.774,4.774,0,0,0-2.956-.884l-3.956-.066v7.354l3.956-.1A4.187,4.187,0,0,0,1157.579,2672.837Zm10.078-18.141,6.592.383v22.878l-6.592.311Z"/></g></svg>