<svg xmlns="http://www.w3.org/2000/svg" width="227.531" height="75.314" viewBox="0 0 227.531 75.314"><g id="Сгруппировать_86" data-name="Сгруппировать 86" transform="translate(-846.469 -2270.481)" fill="#fff"><path id="Контур_102" data-name="Контур 102" d="M873.623,2282.9v35.552l-6.852-.411v-27.669l-13.45,1.508v25.354l-6.852-.411v-29.793Z"/><path id="Контур_103" data-name="Контур 103" d="M897.543,2291.648c1.9,2.159,2.852,5.611,2.852,10.323v18.082l-6.214-.373v-3.82c-1.249,2.784-3.576,4.053-6.981,3.841a9.423,9.423,0,0,1-4.575-1.409,8.146,8.146,0,0,1-2.958-3.218,9.518,9.518,0,0,1-1.021-4.434,8.233,8.233,0,0,1,2.4-6.227c1.6-1.57,4.079-2.426,7.427-2.546l5.278-.189a6.426,6.426,0,0,0-1.319-4.387,4.607,4.607,0,0,0-3.959-1.284,9.805,9.805,0,0,0-3.6.975,10.056,10.056,0,0,0-3,2.137l-2.383-5.6a15.581,15.581,0,0,1,4.49-2.974,17.423,17.423,0,0,1,5.384-1.484C892.918,2288.683,895.641,2289.536,897.543,2291.648Zm-5.661,21.389a5.509,5.509,0,0,0,1.873-3.053v-3.128l-4.554.037q-4.084.033-4.086,3.452a3.471,3.471,0,0,0,1,2.6,3.924,3.924,0,0,0,2.746,1.039A4.61,4.61,0,0,0,891.882,2313.037Z"/><path id="Контур_104" data-name="Контур 104" d="M925.442,2296.056a14.214,14.214,0,0,1,4.107,6.34,29.7,29.7,0,0,1,1.489,9.881,29.243,29.243,0,0,1-1.489,9.83,13.553,13.553,0,0,1-4.107,6.2,7.856,7.856,0,0,1-5.81,1.706,8.8,8.8,0,0,1-6.9-4.769v15.723l-6.64-1.046v-44.38l6.342-.408v3.879a8.516,8.516,0,0,1,7.193-4.857A8.077,8.077,0,0,1,925.442,2296.056Zm-2.768,23.2a13.217,13.217,0,0,0,1.64-7.1,13.519,13.519,0,0,0-1.64-7.152,4.663,4.663,0,0,0-4.192-2.542,5.033,5.033,0,0,0-4.192,2.673,12.527,12.527,0,0,0-1.638,6.82,12.83,12.83,0,0,0,1.638,6.876,5.252,5.252,0,0,0,4.192,2.817A4.48,4.48,0,0,0,922.674,2319.256Z"/><path id="Контур_105" data-name="Контур 105" d="M954.021,2284.72l-7.746.739v29.848l-6.6-.19v-29.028l-7.745.739v-8.763l22.089-2.965Z"/><path id="Контур_106" data-name="Контур 106" d="M957.511,2292.081l6.6-.428v16.424l9.959-.012v-17.058l6.64-.43v44.779l-6.64-.652V2318.38l-9.959-.371v15.718l-6.6-.648Z"/><path id="Контур_107" data-name="Контур 107" d="M1009.138,2305.912l-17.323.141a14.916,14.916,0,0,0,2.213,6.876,5.3,5.3,0,0,0,4.341,2.637,4.778,4.778,0,0,0,3.172-1.042,10.105,10.105,0,0,0,2.575-3.514l3.533,8.257c-2.157,5.185-5.307,7.62-9.449,7.361a9.973,9.973,0,0,1-6.853-3.5,21.407,21.407,0,0,1-4.6-8.616,41.986,41.986,0,0,1-1.617-12.128,43.429,43.429,0,0,1,1.6-12.155,23.852,23.852,0,0,1,4.384-8.836,9.412,9.412,0,0,1,6.236-3.723,7.19,7.19,0,0,1,6.086,2.421q2.724,2.826,4.277,8.506a51.709,51.709,0,0,1,1.554,13.452Q1009.266,2302.325,1009.138,2305.912Zm-15.535-14.95a17.292,17.292,0,0,0-1.872,7.213l11.279-.4a17.036,17.036,0,0,0-1.873-7.22q-1.533-2.626-3.745-2.468C995.887,2288.189,994.624,2289.152,993.6,2290.962Z"/><path id="Контур_108" data-name="Контур 108" d="M1033.632,2277.27q2.617,3.195,4.107,9.36a63.1,63.1,0,0,1,1.489,14.593,63.936,63.936,0,0,1-1.489,14.657,24.593,24.593,0,0,1-4.107,9.534c-1.746,2.181-3.682,3.2-5.81,3.063-2.923-.182-5.221-2.4-6.9-6.632v23.95l-6.64-.788v-68.375l6.342-.653v5.911c1.646-4.609,4.044-7.1,7.193-7.43C1029.95,2274.236,1031.886,2275.165,1033.632,2277.27Zm-2.767,34.813a28.774,28.774,0,0,0,1.639-10.715,28.2,28.2,0,0,0-1.639-10.645q-1.64-3.882-4.193-3.707c-1.7.113-3.1,1.507-4.192,4.163a27.725,27.725,0,0,0-1.638,10.44,27.169,27.169,0,0,0,1.638,10.369q1.638,3.915,4.192,3.983T1030.865,2312.083Z"/><path id="Контур_109" data-name="Контур 109" d="M1062.637,2295.318q2.3,4.9,2.3,14.27,0,9.789-2.595,15c-1.732,3.431-4.186,5.037-7.364,4.846l-11.151-.775v-55.068l6.6-.679v17.95l5.447-.278Q1060.339,2290.463,1062.637,2295.318Zm-5.32,20.418a15.309,15.309,0,0,0,1.02-6.384,13.75,13.75,0,0,0-1-6.07,3.321,3.321,0,0,0-2.958-1.964l-3.957-.024v16.28l3.957.1A2.892,2.892,0,0,0,1057.317,2315.736Zm10.086-44.576,6.6-.679v59.986l-6.6-.4Z"/></g></svg>