<svg xmlns="http://www.w3.org/2000/svg" width="217.473" height="104.073" viewBox="0 0 217.473 104.073"><g id="Сгруппировать_62" data-name="Сгруппировать 62" transform="translate(-96.217 -1152.748)"><g id="Сгруппировать_61" data-name="Сгруппировать 61"><path id="Контур_70" data-name="Контур 70" d="M119.185,1156.313v57.781l-5.8.071v-47.673l-11.376-1.407v49.22l-5.8.071v-61.628Z"/><path id="Контур_71" data-name="Контур 71" d="M141.307,1200.059a19.839,19.839,0,0,1,3.473,7.518,43.624,43.624,0,0,1,1.26,11.082,44.45,44.45,0,0,1-1.26,11.154,21.1,21.1,0,0,1-3.473,7.708,7.143,7.143,0,0,1-4.914,3.127c-2.473.233-4.416-1.3-5.832-4.639v20.034l-5.617.778v-59.412l5.365.2v4.954c1.391-3.681,3.42-5.459,6.084-5.356A6.67,6.67,0,0,1,141.307,1200.059Zm-2.341,27.239a21.715,21.715,0,0,0,1.387-8.481,21.106,21.106,0,0,0-1.387-8.4q-1.386-3.161-3.546-3.182t-3.546,3.194a22.362,22.362,0,0,0-1.386,8.663,21.79,21.79,0,0,0,1.386,8.588q1.386,3.135,3.546,2.995C136.86,1230.582,138.042,1229.453,138.966,1227.3Z"/><path id="Контур_72" data-name="Контур 72" d="M152.51,1192.992a19.6,19.6,0,0,1-3.8-7.642,40.47,40.47,0,0,1-1.368-10.945,37.189,37.189,0,0,1,1.368-10.638,14.914,14.914,0,0,1,3.8-6.792,6.168,6.168,0,0,1,5.49-1.667,9.13,9.13,0,0,1,5.472,3.527,21.444,21.444,0,0,1,3.78,7.641,36.538,36.538,0,0,1,1.367,10.31,33.4,33.4,0,0,1-1.367,10.005,16.3,16.3,0,0,1-3.78,6.794,7.037,7.037,0,0,1-5.472,2.3A7.673,7.673,0,0,1,152.51,1192.992Zm9.036-9.141a17.638,17.638,0,0,0,1.386-7.7,19.831,19.831,0,0,0-1.386-8.01q-1.388-3.133-3.546-3.457t-3.564,2.477a17.994,17.994,0,0,0-1.4,7.882,20.244,20.244,0,0,0,1.4,8.2q1.4,3.112,3.564,3.273C159.439,1186.623,160.621,1185.732,161.546,1183.851Z"/><path id="Контур_73" data-name="Контур 73" d="M188.951,1166.121l-9.935-1.58v27.972l-5.58-.34v-37.425l15.515,2.942Z"/><path id="Контур_74" data-name="Контур 74" d="M208.23,1181.679a16.212,16.212,0,0,1,3.474,6.242,28.567,28.567,0,0,1,1.26,8.853,27.323,27.323,0,0,1-1.26,8.723,14.187,14.187,0,0,1-3.474,5.879,7.085,7.085,0,0,1-4.914,2.182c-2.472.035-4.416-1.311-5.832-4.064v16.015l-5.616.33v-47.69l5.364.625v3.96c1.392-2.823,3.42-4.065,6.084-3.749A7.97,7.97,0,0,1,208.23,1181.679Zm-2.34,21.431a13.513,13.513,0,0,0,1.386-6.632,14.386,14.386,0,0,0-1.386-6.776q-1.386-2.622-3.546-2.815t-3.546,2.262a14.014,14.014,0,0,0-1.386,6.815,14.92,14.92,0,0,0,1.386,6.961q1.386,2.6,3.546,2.63C203.784,1205.579,204.966,1204.76,205.89,1203.11Z"/><path id="Контур_75" data-name="Контур 75" d="M230.964,1185.576c1.607,2.367,2.412,5.745,2.412,10.163v16.952l-5.256.065v-3.784a5.98,5.98,0,0,1-5.9,4.318,6.159,6.159,0,0,1-3.87-1.18,7.634,7.634,0,0,1-2.5-3.423,13.687,13.687,0,0,1-.864-5.011q0-4.473,2.034-6.927,2.034-2.421,6.282-2.146l4.464.283a8.007,8.007,0,0,0-1.115-4.532,4.26,4.26,0,0,0-3.349-1.859,6.125,6.125,0,0,0-3.042.517,6.834,6.834,0,0,0-2.538,1.936l-2.016-6.634a9.211,9.211,0,0,1,3.8-2.42,10.412,10.412,0,0,1,4.554-.455A9.239,9.239,0,0,1,230.964,1185.576Zm-4.788,20.627a5.834,5.834,0,0,0,1.584-3.06v-3.11l-3.852-.16q-3.456-.144-3.456,3.531a4.253,4.253,0,0,0,.846,2.781,2.883,2.883,0,0,0,2.322,1.043A3.586,3.586,0,0,0,226.176,1206.2Z"/><path id="Контур_76" data-name="Контур 76" d="M257.135,1212.4v-15.949l-5.8,13.37h-2.376l-5.651-14.32v17.068l-5.077.063v-29.083l5.869.683,6.191,16.636,6.588-15.148,5.256.612.072,26.005Z"/><path id="Контур_77" data-name="Контур 77" d="M286.438,1212.04v-13.692l-5.795,11.478h-2.376l-5.652-12.42v14.8l-5.076.063v-25.311l5.868.684L279.6,1202.1l6.588-12.967,5.255.612.073,22.232Z"/><path id="Контур_78" data-name="Контур 78" d="M311.278,1193.939a9.048,9.048,0,0,1,2.412,6.713V1211.7l-5.255.065v-2.5c-1.057,1.872-3.025,2.837-5.9,2.878a8.353,8.353,0,0,1-3.87-.777,5.843,5.843,0,0,1-2.5-2.308,6.683,6.683,0,0,1-.863-3.4,5.618,5.618,0,0,1,2.033-4.66q2.035-1.594,6.282-1.319l4.464.282a4.1,4.1,0,0,0-1.115-3.023,5.2,5.2,0,0,0-3.349-1.33,8.728,8.728,0,0,0-3.042.258,6.938,6.938,0,0,0-2.538,1.234l-2.015-4.54a10.008,10.008,0,0,1,3.8-1.5,15.187,15.187,0,0,1,4.554-.129A11.227,11.227,0,0,1,311.278,1193.939Zm-4.788,13.5a3.686,3.686,0,0,0,1.584-2.012v-2.053l-3.851-.16q-3.456-.144-3.456,2.32a2.294,2.294,0,0,0,.845,1.868,3.628,3.628,0,0,0,2.323.707A4.684,4.684,0,0,0,306.49,1207.436Z"/></g></g></svg>